<?xml version="1.0" encoding="UTF-8" standalone="no"?>
<!DOCTYPE svg PUBLIC "-//W3C//DTD SVG 1.1//EN" "http://www.w3.org/Graphics/SVG/1.1/DTD/svg11.dtd">
<svg width="100%" height="100%" viewBox="0 0 100 100" version="1.1" xmlns="http://www.w3.org/2000/svg" xmlns:xlink="http://www.w3.org/1999/xlink" xml:space="preserve" xmlns:serif="http://www.serif.com/" style="fill-rule:evenodd;clip-rule:evenodd;stroke-linejoin:round;stroke-miterlimit:1.5;">
    <g transform="matrix(2,0,0,2,-2.84217e-14,0)">
        <rect x="0" y="0" width="50" height="50" style="fill:rgb(160,221,255);"/>
    </g>
    <g transform="matrix(0.0975722,0.628001,-0.921153,0.143119,115.605,-13.2462)">
        <path d="M52.845,50.002C51.275,50.002 50,53.376 50,57.533C50,61.689 51.275,65.064 52.845,65.064C54.022,64.437 54.978,61.278 54.978,57.533C54.978,53.788 54.022,50.629 52.845,50.002Z" style="fill:rgb(36,130,50);"/>
    </g>
    <g transform="matrix(0.544667,0.327482,-0.480351,0.798918,67.7416,-44.6723)">
        <path d="M52.845,50.002C51.275,50.002 50,53.376 50,57.533C50,61.689 51.275,65.064 52.845,65.064C54.022,64.437 54.978,61.278 54.978,57.533C54.978,53.788 54.022,50.629 52.845,50.002Z" style="fill:rgb(36,130,50);"/>
    </g>
    <g transform="matrix(1.79926,0.731464,-0.753208,1.85275,20.0727,-0.912474)">
        <path d="M27.379,30.769C22.087,23.076 12.555,22.134 0.298,27.362" style="fill:none;stroke:rgb(43,168,74);stroke-width:7.61px;"/>
    </g>
    <g transform="matrix(2,0,0,2,-2.84217e-14,0)">
        <path d="M25,0C25.209,6.427 21.226,15.424 21.151,25C21.086,33.332 24.932,42.103 25,50" style="fill:none;stroke:rgb(36,130,50);stroke-width:7.5px;"/>
    </g>
    <g transform="matrix(2,0,0,2,-2.84217e-14,0)">
        <path d="M39.984,4.808C40.193,11.235 23.154,15.403 23.079,24.979C23.014,33.311 24.932,42.103 25,50" style="fill:none;stroke:rgb(36,130,50);stroke-width:2.5px;stroke-linecap:round;"/>
    </g>
    <g transform="matrix(0.248917,0.584762,-0.85773,0.365111,114.709,-34.1364)">
        <path d="M52.845,50.002C51.275,50.002 50,53.376 50,57.533C50,61.689 51.275,65.064 52.845,65.064C54.022,64.437 54.978,61.278 54.978,57.533C54.978,53.788 54.022,50.629 52.845,50.002Z" style="fill:rgb(36,130,50);"/>
    </g>
</svg>
