<?xml version="1.0" encoding="UTF-8" standalone="no"?>
<!DOCTYPE svg PUBLIC "-//W3C//DTD SVG 1.1//EN" "http://www.w3.org/Graphics/SVG/1.1/DTD/svg11.dtd">
<svg width="100%" height="100%" viewBox="0 0 100 100" version="1.1" xmlns="http://www.w3.org/2000/svg" xmlns:xlink="http://www.w3.org/1999/xlink" xml:space="preserve" xmlns:serif="http://www.serif.com/" style="fill-rule:evenodd;clip-rule:evenodd;stroke-linejoin:round;stroke-miterlimit:1.5;">
    <g transform="matrix(2,0,0,2,-2.84217e-14,0)">
        <rect x="0" y="0" width="50" height="50" style="fill:rgb(160,221,255);"/>
    </g>
    <g transform="matrix(2,0,0,2,-2.84217e-14,0)">
        <path d="M0,25C7.121,24.92 24.935,23.01 25,0" style="fill:none;stroke:rgb(36,130,50);stroke-width:7.5px;"/>
    </g>
    <g transform="matrix(1.79926,0.731464,-0.753208,1.85275,20.0727,-0.912474)">
        <path d="M34.033,16.033C30.324,22.333 28.141,28.09 33.841,41.106" style="fill:none;stroke:rgb(43,168,74);stroke-width:7.61px;"/>
    </g>
    <g transform="matrix(0.61147,0.791268,-1.03494,0.799772,77.7941,-50.175)">
        <path d="M72.428,37.5C75.571,45.158 69.231,49.017 69.231,56.496C69.231,59.81 72.749,62.5 77.083,62.5C81.417,62.5 84.936,59.81 84.936,56.496C84.936,49.017 77.47,42.738 72.428,37.5Z" style="fill:rgb(43,168,74);"/>
    </g>
    <g transform="matrix(0.900926,0.433972,-0.567614,1.17837,26.8272,-42.7497)">
        <path d="M77.083,37.5C78.35,45.158 69.231,49.017 69.231,56.496C69.231,59.81 72.749,62.5 77.083,62.5C81.417,62.5 84.936,59.81 84.936,56.496C84.936,49.017 80.249,42.738 77.083,37.5Z" style="fill:rgb(43,168,74);"/>
    </g>
    <g transform="matrix(0.135661,0.990755,-1.29586,0.177438,128.094,-29.4061)">
        <path d="M72.428,37.5C70.893,43.737 69.231,49.017 69.231,56.496C69.231,59.81 72.749,62.5 77.083,62.5C81.417,62.5 84.936,59.81 84.936,56.496C84.936,49.017 73.155,46.619 72.428,37.5Z" style="fill:rgb(43,168,74);"/>
    </g>
    <g transform="matrix(0.511994,0.858989,-1.25198,0.746232,94.1246,-55.9047)">
        <path d="M52.845,50.002C51.275,50.002 50,53.376 50,57.533C50,61.689 51.275,65.064 52.845,65.064C54.022,64.437 54.978,61.278 54.978,57.533C54.978,53.788 54.022,50.629 52.845,50.002Z" style="fill:rgb(36,130,50);"/>
    </g>
</svg>
