<?xml version="1.0" encoding="UTF-8" standalone="no"?>
<!DOCTYPE svg PUBLIC "-//W3C//DTD SVG 1.1//EN" "http://www.w3.org/Graphics/SVG/1.1/DTD/svg11.dtd">
<svg width="100%" height="100%" viewBox="0 0 100 100" version="1.1" xmlns="http://www.w3.org/2000/svg" xmlns:xlink="http://www.w3.org/1999/xlink" xml:space="preserve" xmlns:serif="http://www.serif.com/" style="fill-rule:evenodd;clip-rule:evenodd;stroke-linecap:round;stroke-linejoin:round;stroke-miterlimit:1.5;">
    <g transform="matrix(2,0,0,2,-2.84217e-14,0)">
        <rect x="0" y="0" width="50" height="50" style="fill:rgb(160,221,255);"/>
    </g>
    <g transform="matrix(1.79926,0.731464,-0.753208,1.85275,20.0727,-0.912474)">
        <path d="M47.994,8.532C33.225,14.379 19.238,6.492 14.451,-5.213" style="fill:none;stroke:rgb(43,168,74);stroke-width:7.61px;"/>
    </g>
    <g transform="matrix(1.79926,0.731464,-0.753208,1.85275,20.0727,-0.912474)">
        <path d="M27.02,30.132C12.252,35.979 9.639,23.775 0.298,27.362" style="fill:none;stroke:rgb(36,130,50);stroke-width:7.61px;"/>
    </g>
    <g transform="matrix(1.02109,0.73036,-0.73036,1.02109,2.31321,-7.94327)">
        <path d="M69.391,28.946C73.731,26.025 77.982,15.365 80.659,16.314C82.872,17.098 81.141,19.593 80.434,18.46" style="fill:none;stroke:rgb(187,255,255);stroke-width:0.8px;"/>
    </g>
    <g transform="matrix(-0.133129,-0.774719,-2.02153,0.347381,120.456,118.595)">
        <path d="M72.374,28.898C71.99,25.662 77.063,16.82 80.561,17.214C84.403,17.647 81.141,19.593 80.434,18.46" style="fill:none;stroke:rgb(187,255,255);stroke-width:0.64px;"/>
    </g>
    <g transform="matrix(1.02109,0.73036,-0.73036,1.02109,2.31321,-7.94327)">
        <path d="M69.391,28.946C73.731,26.025 75.796,18.548 78.473,19.497C80.686,20.281 78.891,22.325 78.183,21.193" style="fill:none;stroke:rgb(187,255,255);stroke-width:0.8px;"/>
    </g>
    <g transform="matrix(0.122185,0.615915,-0.968545,0.192139,60.9332,20.9133)">
        <path d="M77.644,13.645C80.343,4.167 85.741,4.167 88.44,7.468C91.14,10.769 91.14,17.372 88.44,23.974C86.551,28.926 81.693,33.878 77.644,37.179C73.596,33.878 68.737,28.926 66.848,23.974C64.149,17.372 64.149,10.769 66.848,7.468C69.547,4.167 74.945,4.167 77.644,13.645Z" style="fill:rgb(124,255,255);"/>
    </g>
    <g transform="matrix(0.200087,1.00861,-0.968545,0.192139,54.8845,-9.57718)">
        <path d="M77.644,23.718C80.343,4.167 85.741,4.167 88.44,7.468C91.14,10.769 91.14,17.372 88.44,23.974C86.551,28.926 81.693,33.878 77.644,37.179C73.596,33.878 68.737,28.926 66.848,23.974C64.149,17.372 64.149,10.769 66.848,7.468C69.547,4.167 74.945,4.167 77.644,23.718Z" style="fill:rgb(187,255,255);"/>
    </g>
    <g transform="matrix(0.339776,1.71276,-0.839429,0.166525,39.238,-63.298)">
        <path d="M77.644,27.668C80.343,4.167 85.741,4.167 88.44,7.468C91.14,10.769 91.14,17.372 88.44,23.974C86.551,28.926 81.693,33.878 77.644,37.179C73.596,33.878 68.737,28.926 66.848,23.974C64.149,17.372 64.149,10.769 66.848,7.468C69.547,4.167 74.945,4.167 77.644,27.668Z" style="fill:rgb(124,255,255);"/>
    </g>
</svg>
