<?xml version="1.0" encoding="UTF-8" standalone="no"?>
<!DOCTYPE svg PUBLIC "-//W3C//DTD SVG 1.1//EN" "http://www.w3.org/Graphics/SVG/1.1/DTD/svg11.dtd">
<svg width="100%" height="100%" viewBox="0 0 100 100" version="1.1" xmlns="http://www.w3.org/2000/svg" xmlns:xlink="http://www.w3.org/1999/xlink" xml:space="preserve" xmlns:serif="http://www.serif.com/" style="fill-rule:evenodd;clip-rule:evenodd;stroke-linejoin:round;stroke-miterlimit:1.5;">
    <g transform="matrix(2,0,0,2,-2.84217e-14,0)">
        <rect x="0" y="0" width="50" height="50" style="fill:rgb(160,221,255);"/>
    </g>
    <g transform="matrix(1.79926,0.731464,-0.753208,1.85275,20.0727,-0.912474)">
        <path d="M47.994,8.532C39.339,12.055 20.097,2.134 18.496,18.707" style="fill:none;stroke:rgb(43,168,74);stroke-width:7.61px;"/>
    </g>
    <g transform="matrix(1,0,0,1,2.24359,0)">
        <path d="M33.894,42.431C32.292,45.353 25.08,63.942 16.907,62.34" style="fill:none;stroke:rgb(43,168,74);stroke-width:5px;stroke-linecap:round;"/>
    </g>
    <g transform="matrix(1,0,0,1,5.36859,0)">
        <path d="M33.894,42.431C32.292,45.353 19.551,62.821 22.276,68.59" style="fill:none;stroke:rgb(43,168,74);stroke-width:5px;stroke-linecap:round;"/>
    </g>
    <g transform="matrix(1,0,0,1,2.24359,0)">
        <path d="M39.984,44.995C38.381,47.917 30.689,54.104 33.894,64.521" style="fill:none;stroke:rgb(43,168,74);stroke-width:5px;stroke-linecap:round;"/>
    </g>
    <g transform="matrix(1,0,0,1,2.24359,0)">
        <path d="M42.067,44.995C40.465,47.917 48.157,61.859 39.984,60.256" style="fill:none;stroke:rgb(43,168,74);stroke-width:5px;stroke-linecap:round;"/>
    </g>
    <g transform="matrix(1,0,0,1,2.24359,0)">
        <path d="M33.894,42.431C32.292,45.353 25.08,63.942 16.907,62.34" style="fill:none;stroke:rgb(43,168,74);stroke-width:5px;stroke-linecap:round;"/>
    </g>
</svg>
