<?xml version="1.0" encoding="UTF-8" standalone="no"?>
<!DOCTYPE svg PUBLIC "-//W3C//DTD SVG 1.1//EN" "http://www.w3.org/Graphics/SVG/1.1/DTD/svg11.dtd">
<svg width="100%" height="100%" viewBox="0 0 100 100" version="1.1" xmlns="http://www.w3.org/2000/svg" xmlns:xlink="http://www.w3.org/1999/xlink" xml:space="preserve" xmlns:serif="http://www.serif.com/" style="fill-rule:evenodd;clip-rule:evenodd;stroke-linecap:round;stroke-linejoin:round;stroke-miterlimit:1.5;">
    <g transform="matrix(2,0,0,2,-2.84217e-14,0)">
        <rect x="0" y="0" width="50" height="50" style="fill:rgb(160,221,255);"/>
    </g>
    <g transform="matrix(1.52352,0,0,1.31967,-25.3309,11.7921)">
        <path d="M41.994,20.301L44.165,22.03L41.01,26.791L46.115,28.609L45.285,31.407L40.181,29.589L40.181,35.473L37.497,35.473L37.497,29.589L32.392,31.407L31.563,28.609L36.667,26.791L33.512,22.03L35.684,20.301L38.839,25.061L41.994,20.301Z" style="fill:white;"/>
    </g>
    <g transform="matrix(1.79926,0.731464,-0.753208,1.85275,20.0727,1.65163)">
        <path d="M33.344,39.918C30.101,32.229 34.798,22.256 29.05,7.534" style="fill:none;stroke:rgb(43,168,74);stroke-width:7.61px;"/>
    </g>
    <g transform="matrix(1.79926,0.731464,-0.753208,1.85275,20.0727,-0.912474)">
        <path d="M0.298,27.362C7.053,24.625 35.616,26.04 29.881,9.52" style="fill:none;stroke:rgb(36,130,50);stroke-width:7.61px;"/>
    </g>
    <g transform="matrix(1.79926,0.731464,-0.753208,1.85275,20.0727,1.65163)">
        <path d="M47.497,7.344C40.734,9.778 19.595,8.037 13.954,-6.4" style="fill:none;stroke:rgb(43,168,74);stroke-width:7.61px;"/>
    </g>
    <g transform="matrix(1.52352,0,0,1.31967,-25.3309,11.7921)">
        <path d="M41.994,20.301L44.165,22.03L41.01,26.791L46.115,28.609L45.285,31.407L40.181,29.589L40.181,35.473L37.497,35.473L37.497,29.589L32.392,31.407L31.563,28.609L36.667,26.791L33.512,22.03L35.684,20.301L38.839,25.061L41.994,20.301Z" style="fill:white;"/>
    </g>
    <g transform="matrix(1.52352,0,0,1.31967,4.73862,-21.8118)">
        <path d="M41.994,20.301L44.165,22.03L41.01,26.791L46.115,28.609L45.285,31.407L40.181,29.589L40.181,35.473L37.497,35.473L37.497,29.589L32.392,31.407L31.563,28.609L36.667,26.791L33.512,22.03L35.684,20.301L38.839,25.061L41.994,20.301Z" style="fill:white;"/>
    </g>
</svg>
