<?xml version="1.0" encoding="UTF-8" standalone="no"?>
<!DOCTYPE svg PUBLIC "-//W3C//DTD SVG 1.1//EN" "http://www.w3.org/Graphics/SVG/1.1/DTD/svg11.dtd">
<svg width="100%" height="100%" viewBox="0 0 100 100" version="1.1" xmlns="http://www.w3.org/2000/svg" xmlns:xlink="http://www.w3.org/1999/xlink" xml:space="preserve" xmlns:serif="http://www.serif.com/" style="fill-rule:evenodd;clip-rule:evenodd;stroke-linejoin:round;stroke-miterlimit:1.5;">
    <g transform="matrix(2,0,0,2,-2.84217e-14,0)">
        <rect x="0" y="0" width="50" height="50" style="fill:rgb(160,221,255);"/>
    </g>
    <g transform="matrix(2,0,0,2,-2.84217e-14,0)">
        <path d="M50,25C43.603,25.048 34.105,20.386 25,20.364C14.116,20.339 3.794,24.951 0,25" style="fill:none;stroke:rgb(36,130,50);stroke-width:7.5px;"/>
    </g>
    <g transform="matrix(1.79926,0.731464,-0.753208,1.85275,20.0727,-0.912474)">
        <path d="M38.718,28.714C30.47,30.776 25.694,26.662 22.344,18.658C18.864,10.342 15.523,-2.595 14.451,-5.213" style="fill:none;stroke:rgb(43,168,74);stroke-width:7.61px;stroke-linecap:round;"/>
    </g>
    <g transform="matrix(-0.731261,0.444126,-0.497991,-0.819951,147.67,60.767)">
        <path d="M52.845,50.002C52.06,51.257 51.422,54.199 51.422,57.533C51.422,60.866 52.06,63.809 52.845,65.064C54.022,64.437 54.978,61.278 54.978,57.533C54.978,53.788 54.022,50.629 52.845,50.002Z" style="fill:rgb(36,130,50);"/>
    </g>
    <g transform="matrix(0.241443,0.82079,-0.920338,0.270726,109.723,-6.79094)">
        <path d="M52.845,50.002C52.06,51.257 51.422,54.199 51.422,57.533C51.422,60.866 52.06,63.809 52.845,65.064C54.022,64.437 54.978,61.278 54.978,57.533C54.978,53.788 54.022,50.629 52.845,50.002Z" style="fill:rgb(36,130,50);"/>
    </g>
    <g transform="matrix(-0.138653,0.844255,-0.946648,-0.155469,79.827,1.12308)">
        <path d="M52.845,50.002C52.06,51.257 51.422,54.199 51.422,57.533C51.422,60.866 52.06,63.809 52.845,65.064C54.022,64.437 54.978,61.278 54.978,57.533C54.978,53.788 54.022,50.629 52.845,50.002Z" style="fill:rgb(36,130,50);"/>
    </g>
    <g transform="matrix(0.523503,0.67671,-0.758783,0.586995,46.8711,-19.2988)">
        <path d="M52.845,50.002C52.06,51.257 51.422,54.199 51.422,57.533C51.422,60.866 52.06,63.809 52.845,65.064C54.022,64.437 54.978,61.278 54.978,57.533C54.978,53.788 54.022,50.629 52.845,50.002Z" style="fill:rgb(36,130,50);"/>
    </g>
</svg>
