<?xml version="1.0" encoding="UTF-8" standalone="no"?>
<!DOCTYPE svg PUBLIC "-//W3C//DTD SVG 1.1//EN" "http://www.w3.org/Graphics/SVG/1.1/DTD/svg11.dtd">
<svg width="100%" height="100%" viewBox="0 0 100 100" version="1.1" xmlns="http://www.w3.org/2000/svg" xmlns:xlink="http://www.w3.org/1999/xlink" xml:space="preserve" xmlns:serif="http://www.serif.com/" style="fill-rule:evenodd;clip-rule:evenodd;stroke-linejoin:round;stroke-miterlimit:1.5;">
    <g transform="matrix(2,0,0,2,-2.84217e-14,0)">
        <rect x="0" y="0" width="50" height="50" style="fill:rgb(160,221,255);"/>
    </g>
    <g transform="matrix(2,0,0,2,-2.84217e-14,0)">
        <path d="M37.02,25C37.01,36.699 24.775,37.594 25,50" style="fill:none;stroke:rgb(36,130,50);stroke-width:7.5px;"/>
    </g>
    <g transform="matrix(1.21739,0,0,1.21739,-16.2347,-10.765)">
        <path d="M72.691,42.099C72.691,36.023 73.582,31.09 74.679,31.09C75.777,31.09 76.668,36.023 76.668,42.099C79.706,36.837 82.944,33.01 83.894,33.559C84.845,34.108 83.15,38.825 80.112,44.087C85.374,41.049 90.091,39.354 90.64,40.304C91.189,41.255 87.362,44.493 82.1,47.531C88.176,47.531 93.109,48.422 93.109,49.519C93.109,50.617 88.176,51.507 82.1,51.507C87.362,54.546 91.189,57.784 90.64,58.734C90.091,59.684 85.374,57.989 80.112,54.951C83.15,60.213 84.845,64.931 83.894,65.48C82.944,66.028 79.706,62.202 76.668,56.94C76.668,63.016 75.777,67.949 74.679,67.949C73.582,67.949 72.691,63.016 72.691,56.94C69.653,62.202 66.415,66.028 65.465,65.48C64.514,64.931 66.209,60.213 69.247,54.951C63.985,57.989 59.268,59.684 58.719,58.734C58.17,57.784 61.997,54.546 67.259,51.507C61.183,51.507 56.25,50.617 56.25,49.519C56.25,48.422 61.183,47.531 67.259,47.531C61.997,44.493 58.17,41.255 58.719,40.304C59.268,39.354 63.985,41.049 69.247,44.087C66.209,38.825 64.514,34.108 65.465,33.559C66.415,33.01 69.653,36.837 72.691,42.099Z" style="fill:rgb(90,0,159);"/>
    </g>
    <g transform="matrix(0.347784,0.0969063,-0.0969063,0.347784,53.5059,25.0603)">
        <path d="M70.785,34.984C70.785,32.835 72.53,31.09 74.679,31.09C76.829,31.09 78.574,32.835 78.574,34.984C79.649,33.123 82.033,32.484 83.894,33.559C85.756,34.634 86.395,37.017 85.32,38.879C87.181,37.804 89.565,38.443 90.64,40.304C91.715,42.166 91.076,44.55 89.214,45.625C91.364,45.625 93.109,47.37 93.109,49.519C93.109,51.669 91.364,53.414 89.214,53.414C91.076,54.489 91.715,56.872 90.64,58.734C89.565,60.595 87.181,61.234 85.32,60.159C86.395,62.021 85.756,64.405 83.894,65.48C82.033,66.554 79.649,65.916 78.574,64.054C78.574,66.204 76.829,67.949 74.679,67.949C72.53,67.949 70.785,66.204 70.785,64.054C69.71,65.916 67.326,66.554 65.465,65.48C63.603,64.405 62.964,62.021 64.039,60.159C62.178,61.234 59.794,60.595 58.719,58.734C57.644,56.872 58.283,54.489 60.145,53.414C57.995,53.414 56.25,51.669 56.25,49.519C56.25,47.37 57.995,45.625 60.145,45.625C58.283,44.55 57.644,42.166 58.719,40.304C59.794,38.443 62.178,37.804 64.039,38.879C62.964,37.017 63.603,34.634 65.465,33.559C67.326,32.484 69.71,33.123 70.785,34.984Z" style="fill:rgb(255,220,159);"/>
    </g>
    <g transform="matrix(1.79926,0.731464,-0.753208,1.85275,20.0727,-0.912474)">
        <path d="M0.298,27.362C14.557,21.454 19.732,7.21 14.451,-5.213" style="fill:none;stroke:rgb(43,168,74);stroke-width:7.61px;"/>
    </g>
</svg>
