<?xml version="1.0" encoding="UTF-8" standalone="no"?>
<!DOCTYPE svg PUBLIC "-//W3C//DTD SVG 1.1//EN" "http://www.w3.org/Graphics/SVG/1.1/DTD/svg11.dtd">
<svg width="100%" height="100%" viewBox="0 0 100 100" version="1.1" xmlns="http://www.w3.org/2000/svg" xmlns:xlink="http://www.w3.org/1999/xlink" xml:space="preserve" xmlns:serif="http://www.serif.com/" style="fill-rule:evenodd;clip-rule:evenodd;stroke-linecap:round;stroke-linejoin:round;stroke-miterlimit:1.5;">
    <g transform="matrix(2,0,0,2,-2.84217e-14,0)">
        <rect x="0" y="0" width="50" height="50" style="fill:rgb(160,221,255);"/>
    </g>
    <g transform="matrix(-1.79926,0.731464,0.753208,1.85275,79.9273,-0.912474)">
        <path d="M47.994,8.532C39.339,12.055 24.42,18.419 33.841,41.106" style="fill:none;stroke:rgb(36,130,50);stroke-width:7.61px;"/>
    </g>
    <g transform="matrix(-1.79926,0.731464,0.513801,1.26385,89.9634,23.7745)">
        <path d="M22.457,5.091C19.768,5.486 19.842,2.034 21.066,0.588C21.851,-0.339 23.443,-0.187 23.981,1.494C25.446,6.076 25.139,12.444 25.745,17.118C26.97,26.563 28.103,33.072 31.777,41.921" style="fill:none;stroke:rgb(36,130,50);stroke-width:1.19px;"/>
    </g>
    <g transform="matrix(-1.79926,0.731464,0.544721,1.33991,88.6672,20.5861)">
        <path d="M27.961,4.176C29.797,9.741 22.356,19.233 31.777,41.921" style="fill:none;stroke:rgb(36,130,50);stroke-width:1.17px;"/>
    </g>
    <g transform="matrix(-1.79926,0.731464,0.753208,1.85275,79.9273,-0.912474)">
        <path d="M19.712,22.033C17.736,22.908 17.107,19.873 19.512,19.776C19.871,19.762 20.226,19.964 20.506,20.188C20.93,20.528 21.293,20.956 21.57,21.423C25.13,27.447 28.568,37.319 30.662,42.361" style="fill:none;stroke:rgb(36,130,50);stroke-width:1.01px;"/>
    </g>
</svg>
