<?xml version="1.0" encoding="UTF-8" standalone="no"?>
<!DOCTYPE svg PUBLIC "-//W3C//DTD SVG 1.1//EN" "http://www.w3.org/Graphics/SVG/1.1/DTD/svg11.dtd">
<svg width="100%" height="100%" viewBox="0 0 100 100" version="1.1" xmlns="http://www.w3.org/2000/svg" xmlns:xlink="http://www.w3.org/1999/xlink" xml:space="preserve" xmlns:serif="http://www.serif.com/" style="fill-rule:evenodd;clip-rule:evenodd;stroke-linecap:round;stroke-linejoin:round;stroke-miterlimit:1.5;">
    <g transform="matrix(2,0,0,2,-2.84217e-14,0)">
        <rect x="0" y="0" width="50" height="50" style="fill:rgb(160,221,255);"/>
    </g>
    <g transform="matrix(1.79926,0.731464,-0.753208,1.85275,20.0727,-0.912474)">
        <path d="M29.191,15.955C26.237,9.144 19.732,7.21 14.451,-5.213" style="fill:none;stroke:rgb(43,168,74);stroke-width:7.61px;"/>
    </g>
    <g transform="matrix(1.44466,-0.0721493,0.0721493,1.44466,-34.7028,35.7735)">
        <path d="M78.542,31.05C79.739,28.699 80.369,26.032 80.369,23.317C80.369,14.782 74.259,7.853 66.733,7.853C59.207,7.853 53.097,14.782 53.097,23.317C53.097,26.032 53.727,28.699 54.924,31.05L78.542,31.05Z" style="fill:rgb(209,78,234);"/>
    </g>
    <g transform="matrix(-0.415012,0.032446,-0.0844242,-1.07986,113.328,82.693)">
        <path d="M90.304,15.144C90.304,10.409 86.322,6.571 81.41,6.571C76.498,6.571 72.516,10.409 72.516,15.144L90.304,15.144Z" style="fill:rgb(209,78,234);"/>
    </g>
    <g transform="matrix(-0.415012,0.032446,-0.0844242,-1.07986,108.212,83.8667)">
        <path d="M90.304,15.144C90.304,10.409 86.322,6.571 81.41,6.571C76.498,6.571 72.516,10.409 72.516,15.144L90.304,15.144Z" style="fill:rgb(209,78,234);"/>
    </g>
    <g transform="matrix(-0.415012,0.032446,-0.0844242,-1.07986,103.446,84.169)">
        <path d="M90.304,15.144C90.304,10.409 86.322,6.571 81.41,6.571C76.498,6.571 72.516,10.409 72.516,15.144L90.304,15.144Z" style="fill:rgb(209,78,234);"/>
    </g>
    <g transform="matrix(-0.415012,0.032446,-0.0844242,-1.07986,99.1217,83.3785)">
        <path d="M90.304,15.144C90.304,10.409 86.322,6.571 81.41,6.571C76.498,6.571 72.516,10.409 72.516,15.144L90.304,15.144Z" style="fill:rgb(209,78,234);"/>
    </g>
    <g transform="matrix(-0.415012,0.032446,-0.0844242,-1.07986,94.3355,83.7324)">
        <path d="M90.304,15.144C90.304,10.409 86.322,6.571 81.41,6.571C76.498,6.571 72.516,10.409 72.516,15.144L90.304,15.144Z" style="fill:rgb(209,78,234);"/>
    </g>
    <g transform="matrix(-0.415012,0.032446,-0.0844242,-1.07986,89.5702,84.0346)">
        <path d="M90.304,15.144C90.304,10.409 86.322,6.571 81.41,6.571C76.498,6.571 72.516,10.409 72.516,15.144L90.304,15.144Z" style="fill:rgb(209,78,234);"/>
    </g>
    <g transform="matrix(-0.415012,0.032446,-0.0844242,-1.07986,84.4536,85.2083)">
        <path d="M90.304,15.144C90.304,10.409 86.322,6.571 81.41,6.571C76.498,6.571 72.516,10.409 72.516,15.144L90.304,15.144Z" style="fill:rgb(209,78,234);"/>
    </g>
</svg>
