<?xml version="1.0" encoding="UTF-8" standalone="no"?>
<!DOCTYPE svg PUBLIC "-//W3C//DTD SVG 1.1//EN" "http://www.w3.org/Graphics/SVG/1.1/DTD/svg11.dtd">
<svg width="100%" height="100%" viewBox="0 0 100 100" version="1.1" xmlns="http://www.w3.org/2000/svg" xmlns:xlink="http://www.w3.org/1999/xlink" xml:space="preserve" xmlns:serif="http://www.serif.com/" style="fill-rule:evenodd;clip-rule:evenodd;stroke-linejoin:round;stroke-miterlimit:1.5;">
    <g transform="matrix(2,0,0,2,-2.84217e-14,0)">
        <rect x="0" y="0" width="50" height="50" style="fill:rgb(160,221,255);"/>
    </g>
    <g transform="matrix(-2.15859,0.202141,-0.150394,-1.606,205.998,162.385)">
        <path d="M59.274,55.401C59.274,55.401 57.016,61.772 57.016,64.502C57.016,66.177 58.027,67.537 59.274,67.537C60.52,67.537 61.532,66.177 61.532,64.502C61.532,61.772 59.274,55.401 59.274,55.401Z" style="fill:rgb(212,101,43);"/>
    </g>
    <g transform="matrix(1.79926,0.731464,-0.753208,1.85275,20.0727,-0.912474)">
        <path d="M33.365,19.756C30.832,14.152 23.993,7.346 16.815,14.304C11.249,19.7 11.167,23.706 0.298,27.362" style="fill:none;stroke:rgb(43,168,74);stroke-width:7.61px;"/>
    </g>
    <g transform="matrix(0.412035,3.3494,-1.65163,0.20318,141.466,-187.862)">
        <path d="M75.881,50C71.105,50 67.228,55.852 67.228,63.061C67.228,70.269 71.105,76.122 75.881,76.122C74.449,73.074 73.285,68.271 73.285,63.061C73.285,57.851 74.449,53.048 75.881,50Z" style="fill:rgb(212,101,43);"/>
    </g>
    <g transform="matrix(0.3294,2.67766,-1.24731,0.153441,122.217,-133.103)">
        <path d="M75.881,50C71.105,50 67.228,55.852 67.228,63.061C67.228,70.269 71.105,76.122 75.881,76.122C74.449,73.074 73.285,68.271 73.285,63.061C73.285,57.851 74.449,53.048 75.881,50Z" style="fill:rgb(213,104,99);"/>
    </g>
    <g transform="matrix(0.282581,2.29707,-0.904795,0.111306,104.779,-97.4484)">
        <path d="M75.881,50C71.105,50 67.228,55.852 67.228,63.061C67.228,70.269 71.105,76.122 75.881,76.122C74.449,73.074 73.285,68.271 73.285,63.061C73.285,57.851 74.449,53.048 75.881,50Z" style="fill:rgb(212,101,43);"/>
    </g>
    <g transform="matrix(0.158257,1.28646,-0.425838,0.0523856,84.0286,-16.8938)">
        <path d="M75.881,50C71.105,50 67.228,55.852 67.228,63.061C67.228,70.269 71.105,76.122 75.881,76.122C74.449,73.074 73.285,68.271 73.285,63.061C73.285,57.851 74.449,53.048 75.881,50Z" style="fill:rgb(213,104,99);"/>
    </g>
    <g transform="matrix(0.653863,0.191253,-0.397348,1.35847,12.6995,-18.5462)">
        <path d="M31.571,21.795C28.95,22.663 26.823,27.032 26.823,32.212C26.823,37.391 28.95,41.76 31.571,42.628C34.191,41.76 36.318,37.391 36.318,32.212C36.318,27.032 34.191,22.663 31.571,21.795Z" style="fill:rgb(43,168,74);"/>
    </g>
    <g transform="matrix(0.483721,0.343172,-0.818968,1.15439,34.7141,-14.6891)">
        <path d="M31.571,21.795C28.95,22.663 26.823,27.032 26.823,32.212C26.823,37.391 28.95,41.76 31.571,42.628C34.191,41.76 36.318,37.391 36.318,32.212C36.318,27.032 34.191,22.663 31.571,21.795Z" style="fill:rgb(43,168,74);"/>
    </g>
    <g transform="matrix(0.805027,-0.161866,0.279007,1.38761,-19.2198,-5.97777)">
        <path d="M31.571,21.795C28.95,22.663 26.823,27.032 26.823,32.212C26.823,37.391 28.95,41.76 31.571,42.628C34.191,41.76 36.318,37.391 36.318,32.212C36.318,27.032 34.191,22.663 31.571,21.795Z" style="fill:rgb(43,168,74);"/>
    </g>
</svg>
