<?xml version="1.0" encoding="UTF-8" standalone="no"?>
<!DOCTYPE svg PUBLIC "-//W3C//DTD SVG 1.1//EN" "http://www.w3.org/Graphics/SVG/1.1/DTD/svg11.dtd">
<svg width="100%" height="100%" viewBox="0 0 100 100" version="1.1" xmlns="http://www.w3.org/2000/svg" xmlns:xlink="http://www.w3.org/1999/xlink" xml:space="preserve" xmlns:serif="http://www.serif.com/" style="fill-rule:evenodd;clip-rule:evenodd;stroke-linecap:round;stroke-linejoin:round;stroke-miterlimit:1.5;">
    <g transform="matrix(2,0,0,2,-2.84217e-14,0)">
        <rect x="0" y="0" width="50" height="50" style="fill:rgb(160,221,255);"/>
    </g>
    <g transform="matrix(2,0,0,2,-2.84217e-14,0)">
        <path d="M25,0C24.989,11.699 19.086,24.453 0,25" style="fill:none;stroke:rgb(36,130,50);stroke-width:7.5px;"/>
    </g>
    <g transform="matrix(1.79926,0.731464,-0.753208,1.85275,20.0727,-0.912474)">
        <path d="M47.994,8.532C41.658,11.111 46.565,21.249 30.976,27.879" style="fill:none;stroke:rgb(43,168,74);stroke-width:7.61px;"/>
    </g>
    <g transform="matrix(0.935612,-0.312751,0.29809,0.891755,-32.5032,35.8544)">
        <path d="M71.875,46.795L75.051,57.051L83.367,50.712L80.191,60.969L90.469,60.969L82.154,67.308L90.469,73.647L80.191,73.647L83.367,83.903L75.051,77.564L71.875,87.821L68.699,77.564L60.383,83.903L63.559,73.647L53.281,73.647L61.596,67.308L53.281,60.969L63.559,60.969L60.383,50.712L68.699,57.051L71.875,46.795Z" style="fill:rgb(251,255,21);"/>
    </g>
    <g transform="matrix(0.9865,0,0,0.940258,-16.097,10.1109)">
        <path d="M71.875,46.795L73.748,61.26L83.367,50.712L76.778,63.57L90.469,60.969L77.936,67.308L90.469,73.647L76.778,71.045L83.367,83.903L73.748,73.355L71.875,87.821L70.002,73.355L60.383,83.903L66.972,71.045L53.281,73.647L65.814,67.308L53.281,60.969L66.972,63.57L60.383,50.712L70.002,61.26L71.875,46.795Z" style="fill:rgb(246,227,21);"/>
    </g>
    <g transform="matrix(1.51889,0,0,1.56952,20.8517,13.2827)">
        <path d="M22.356,33.494C21.874,33.555 21.491,33.777 21.209,34.161C20.767,33.965 20.321,33.958 19.872,34.138C19.486,34.424 19.27,34.802 19.224,35.27C18.74,35.315 18.349,35.524 18.053,35.897C17.867,36.332 17.875,36.764 18.077,37.192C17.681,37.465 17.451,37.835 17.388,38.301C17.451,38.768 17.681,39.138 18.077,39.411C17.875,39.839 17.867,40.27 18.053,40.705C18.349,41.079 18.74,41.288 19.224,41.332C19.27,41.801 19.486,42.178 19.872,42.465C20.321,42.645 20.767,42.637 21.209,42.442C21.491,42.825 21.874,43.048 22.356,43.109C22.838,43.048 23.22,42.825 23.502,42.442C23.945,42.637 24.39,42.645 24.84,42.465C25.226,42.178 25.442,41.801 25.488,41.332C25.972,41.288 26.362,41.079 26.658,40.705C26.844,40.27 26.836,39.839 26.634,39.411C27.03,39.138 27.26,38.768 27.324,38.301C27.26,37.835 27.03,37.465 26.634,37.192C26.836,36.764 26.844,36.332 26.658,35.897C26.362,35.524 25.972,35.315 25.488,35.27C25.442,34.802 25.226,34.424 24.84,34.138C24.39,33.958 23.945,33.965 23.502,34.161C23.22,33.777 22.838,33.555 22.356,33.494Z" style="fill:rgb(115,94,31);"/>
    </g>
    <g transform="matrix(1.14559,0,0,1.18377,29.1972,28.0573)">
        <path d="M22.356,33.494C21.874,33.555 21.491,33.777 21.209,34.161C20.767,33.965 20.321,33.958 19.872,34.138C19.486,34.424 19.27,34.802 19.224,35.27C18.74,35.315 18.349,35.524 18.053,35.897C17.867,36.332 17.875,36.764 18.077,37.192C17.681,37.465 17.451,37.835 17.388,38.301C17.451,38.768 17.681,39.138 18.077,39.411C17.875,39.839 17.867,40.27 18.053,40.705C18.349,41.079 18.74,41.288 19.224,41.332C19.27,41.801 19.486,42.178 19.872,42.465C20.321,42.645 20.767,42.637 21.209,42.442C21.491,42.825 21.874,43.048 22.356,43.109C22.838,43.048 23.22,42.825 23.502,42.442C23.945,42.637 24.39,42.645 24.84,42.465C25.226,42.178 25.442,41.801 25.488,41.332C25.972,41.288 26.362,41.079 26.658,40.705C26.844,40.27 26.836,39.839 26.634,39.411C27.03,39.138 27.26,38.768 27.324,38.301C27.26,37.835 27.03,37.465 26.634,37.192C26.836,36.764 26.844,36.332 26.658,35.897C26.362,35.524 25.972,35.315 25.488,35.27C25.442,34.802 25.226,34.424 24.84,34.138C24.39,33.958 23.945,33.965 23.502,34.161C23.22,33.777 22.838,33.555 22.356,33.494Z" style="fill:rgb(133,111,40);"/>
    </g>
    <g transform="matrix(0.689329,0,0,0.712306,39.3972,46.1152)">
        <path d="M22.356,33.494C21.874,33.555 21.491,33.777 21.209,34.161C20.767,33.965 20.321,33.958 19.872,34.138C19.486,34.424 19.27,34.802 19.224,35.27C18.74,35.315 18.349,35.524 18.053,35.897C17.867,36.332 17.875,36.764 18.077,37.192C17.681,37.465 17.451,37.835 17.388,38.301C17.451,38.768 17.681,39.138 18.077,39.411C17.875,39.839 17.867,40.27 18.053,40.705C18.349,41.079 18.74,41.288 19.224,41.332C19.27,41.801 19.486,42.178 19.872,42.465C20.321,42.645 20.767,42.637 21.209,42.442C21.491,42.825 21.874,43.048 22.356,43.109C22.838,43.048 23.22,42.825 23.502,42.442C23.945,42.637 24.39,42.645 24.84,42.465C25.226,42.178 25.442,41.801 25.488,41.332C25.972,41.288 26.362,41.079 26.658,40.705C26.844,40.27 26.836,39.839 26.634,39.411C27.03,39.138 27.26,38.768 27.324,38.301C27.26,37.835 27.03,37.465 26.634,37.192C26.836,36.764 26.844,36.332 26.658,35.897C26.362,35.524 25.972,35.315 25.488,35.27C25.442,34.802 25.226,34.424 24.84,34.138C24.39,33.958 23.945,33.965 23.502,34.161C23.22,33.777 22.838,33.555 22.356,33.494Z" style="fill:rgb(115,94,31);"/>
    </g>
</svg>
