<?xml version="1.0" encoding="UTF-8" standalone="no"?>
<!DOCTYPE svg PUBLIC "-//W3C//DTD SVG 1.1//EN" "http://www.w3.org/Graphics/SVG/1.1/DTD/svg11.dtd">
<svg width="100%" height="100%" viewBox="0 0 100 100" version="1.1" xmlns="http://www.w3.org/2000/svg" xmlns:xlink="http://www.w3.org/1999/xlink" xml:space="preserve" xmlns:serif="http://www.serif.com/" style="fill-rule:evenodd;clip-rule:evenodd;stroke-linecap:round;stroke-linejoin:round;stroke-miterlimit:1.5;">
    <g transform="matrix(2,0,0,2,-2.84217e-14,0)">
        <rect x="0" y="0" width="50" height="50" style="fill:rgb(160,221,255);"/>
    </g>
    <g transform="matrix(2,0,0,2,-2.84217e-14,0)">
        <path d="M25,0C24.989,11.699 20.768,33.507 34.535,38.141" style="fill:none;stroke:rgb(36,130,50);stroke-width:7.5px;"/>
    </g>
    <g transform="matrix(1.79926,0.731464,-0.753208,1.85275,20.0727,-0.912474)">
        <path d="M47.994,8.532C41.658,11.111 21.539,12.532 12.218,27.326" style="fill:none;stroke:rgb(43,168,74);stroke-width:7.61px;"/>
    </g>
    <g transform="matrix(0.359641,0,0,0.33661,2.01795,38.5345)">
        <g transform="matrix(1,0,0,1,42.7083,31.1266)">
            <path d="M-0.93,-11.187C-0.93,-19.185 2.754,-25.678 7.292,-25.678C11.83,-25.678 15.514,-19.185 15.514,-11.187C19.257,-18.113 25.486,-21.768 29.416,-19.344C33.346,-16.92 33.498,-9.329 29.755,-2.402C36.238,-6.401 43.343,-6.239 45.612,-2.04C47.881,2.159 44.46,8.814 37.977,12.813C45.463,12.813 51.54,16.749 51.54,21.598C51.54,26.446 45.463,30.382 37.977,30.382C44.46,34.381 47.881,41.037 45.612,45.236C43.343,49.434 36.238,49.597 29.755,45.598C33.498,52.524 33.346,60.115 29.416,62.54C25.486,64.964 19.257,61.309 15.514,54.383C15.514,62.38 11.83,68.873 7.292,68.873C2.754,68.873 -0.93,62.38 -0.93,54.383C-4.673,61.309 -10.902,64.964 -14.832,62.54C-18.762,60.115 -18.914,52.524 -15.172,45.598C-21.654,49.597 -28.759,49.434 -31.028,45.236C-33.297,41.037 -29.876,34.381 -23.394,30.382C-30.879,30.382 -36.957,26.446 -36.957,21.598C-36.957,16.749 -30.879,12.813 -23.394,12.813C-29.876,8.814 -33.297,2.159 -31.028,-2.04C-28.759,-6.239 -21.654,-6.401 -15.172,-2.402C-18.914,-9.329 -18.762,-16.92 -14.832,-19.344C-10.902,-21.768 -4.673,-18.113 -0.93,-11.187Z" style="fill:rgb(212,165,255);"/>
        </g>
        <g transform="matrix(1.42329,0,0,1.52067,-17.1153,-34.3692)">
            <circle cx="47.155" cy="57.273" r="11.658" style="fill:rgb(199,232,0);"/>
        </g>
    </g>
    <g transform="matrix(0.361452,0,0,0.338305,51.9274,62.1631)">
        <g transform="matrix(1,0,0,1,42.7083,31.1266)">
            <path d="M-0.93,-11.187C-0.93,-19.185 2.754,-25.678 7.292,-25.678C11.83,-25.678 15.514,-19.185 15.514,-11.187C19.257,-18.113 25.486,-21.768 29.416,-19.344C33.346,-16.92 33.498,-9.329 29.755,-2.402C36.238,-6.401 43.343,-6.239 45.612,-2.04C47.881,2.159 44.46,8.814 37.977,12.813C45.463,12.813 51.54,16.749 51.54,21.598C51.54,26.446 45.463,30.382 37.977,30.382C44.46,34.381 47.881,41.037 45.612,45.236C43.343,49.434 36.238,49.597 29.755,45.598C33.498,52.524 33.346,60.115 29.416,62.54C25.486,64.964 19.257,61.309 15.514,54.383C15.514,62.38 11.83,68.873 7.292,68.873C2.754,68.873 -0.93,62.38 -0.93,54.383C-4.673,61.309 -10.902,64.964 -14.832,62.54C-18.762,60.115 -18.914,52.524 -15.172,45.598C-21.654,49.597 -28.759,49.434 -31.028,45.236C-33.297,41.037 -29.876,34.381 -23.394,30.382C-30.879,30.382 -36.957,26.446 -36.957,21.598C-36.957,16.749 -30.879,12.813 -23.394,12.813C-29.876,8.814 -33.297,2.159 -31.028,-2.04C-28.759,-6.239 -21.654,-6.401 -15.172,-2.402C-18.914,-9.329 -18.762,-16.92 -14.832,-19.344C-10.902,-21.768 -4.673,-18.113 -0.93,-11.187Z" style="fill:rgb(78,165,255);"/>
        </g>
        <g transform="matrix(1.42329,0,0,1.52067,-17.1153,-34.3692)">
            <circle cx="47.155" cy="57.273" r="11.658" style="fill:rgb(221,165,255);"/>
        </g>
    </g>
    <g transform="matrix(0.967956,-0.25112,0.366007,1.4108,-14.7245,-46.0528)">
        <path d="M52.845,50.002C51.275,50.002 50,53.376 50,57.533C50,61.689 51.275,65.064 52.845,65.064C54.022,64.437 54.978,61.278 54.978,57.533C54.978,53.788 54.022,50.629 52.845,50.002Z" style="fill:rgb(36,130,50);"/>
    </g>
</svg>
