<?xml version="1.0" encoding="UTF-8" standalone="no"?>
<!DOCTYPE svg PUBLIC "-//W3C//DTD SVG 1.1//EN" "http://www.w3.org/Graphics/SVG/1.1/DTD/svg11.dtd">
<svg width="100%" height="100%" viewBox="0 0 100 100" version="1.1" xmlns="http://www.w3.org/2000/svg" xmlns:xlink="http://www.w3.org/1999/xlink" xml:space="preserve" xmlns:serif="http://www.serif.com/" style="fill-rule:evenodd;clip-rule:evenodd;stroke-linecap:round;stroke-linejoin:round;stroke-miterlimit:1.5;">
    <g transform="matrix(2,0,0,2,-2.84217e-14,0)">
        <rect x="0" y="0" width="50" height="50" style="fill:rgb(160,221,255);"/>
    </g>
    <g transform="matrix(-1.69023,-0.687138,-0.663336,1.63168,123.959,51.9101)">
        <path d="M47.994,8.532C30.648,12.972 36.723,17.976 27.625,41.106" style="fill:none;stroke:rgb(43,168,74);stroke-width:8.36px;"/>
    </g>
    <g transform="matrix(-0.915931,0.935309,-0.944705,-0.925132,96.1679,44.2624)">
        <path d="M38.51,50.137C41.763,47.147 43.591,43.091 43.591,38.862C43.591,30.062 35.817,22.917 26.242,22.917C16.668,22.917 8.894,30.062 8.894,38.862C8.894,43.091 10.722,47.147 13.975,50.137L38.51,50.137Z" style="fill:rgb(237,85,133);"/>
    </g>
    <g transform="matrix(-0.724662,0.739994,-0.866491,-0.848538,86.8618,45.1901)">
        <path d="M38.51,50.137C41.763,47.147 43.591,43.091 43.591,38.862C43.591,30.062 35.817,22.917 26.242,22.917C16.668,22.917 8.894,30.062 8.894,38.862C8.894,43.091 10.722,47.147 13.975,50.137L38.51,50.137Z" style="fill:rgb(237,142,173);"/>
    </g>
    <g transform="matrix(-0.537321,0.548689,-0.782964,-0.766741,77.3675,45.7273)">
        <path d="M38.51,50.137C41.763,47.147 43.591,43.091 43.591,38.862C43.591,30.062 35.817,22.917 26.242,22.917C16.668,22.917 8.894,30.062 8.894,38.862C8.894,43.091 10.722,47.147 13.975,50.137L38.51,50.137Z" style="fill:rgb(237,85,133);"/>
    </g>
    <g transform="matrix(-0.405166,0.413739,-0.692691,-0.678338,68.9518,44.4236)">
        <path d="M38.51,50.137C41.763,47.147 43.591,43.091 43.591,38.862C43.591,30.062 35.817,22.917 26.242,22.917C16.668,22.917 8.894,30.062 8.894,38.862C8.894,43.091 10.722,47.147 13.975,50.137L38.51,50.137Z" style="fill:rgb(237,142,173);"/>
    </g>
    <g transform="matrix(-0.286496,0.292557,-0.560549,-0.548935,59.5142,41.4113)">
        <path d="M38.51,50.137C41.763,47.147 43.591,43.091 43.591,38.862C43.591,30.062 35.817,22.917 26.242,22.917C16.668,22.917 8.894,30.062 8.894,38.862C8.894,43.091 10.722,47.147 13.975,50.137L38.51,50.137Z" style="fill:rgb(237,85,133);"/>
    </g>
    <g transform="matrix(-0.216032,0.220603,-0.49592,-0.485645,54.1229,39.8308)">
        <path d="M38.51,50.137C41.763,47.147 43.591,43.091 43.591,38.862C43.591,30.062 35.817,22.917 26.242,22.917C16.668,22.917 8.894,30.062 8.894,38.862C8.894,43.091 10.722,47.147 13.975,50.137L38.51,50.137Z" style="fill:rgb(237,142,173);"/>
    </g>
    <g transform="matrix(-0.152758,0.15599,-0.382429,-0.374505,46.9782,36.1558)">
        <path d="M38.51,50.137C41.763,47.147 43.591,43.091 43.591,38.862C43.591,30.062 35.817,22.917 26.242,22.917C16.668,22.917 8.894,30.062 8.894,38.862C8.894,43.091 10.722,47.147 13.975,50.137L38.51,50.137Z" style="fill:rgb(237,85,133);"/>
    </g>
    <g transform="matrix(-0.115187,0.117624,-0.338336,-0.331326,43.5756,34.7961)">
        <path d="M38.51,50.137C41.763,47.147 43.591,43.091 43.591,38.862C43.591,30.062 35.817,22.917 26.242,22.917C16.668,22.917 8.894,30.062 8.894,38.862C8.894,43.091 10.722,47.147 13.975,50.137L38.51,50.137Z" style="fill:rgb(237,142,173);"/>
    </g>
    <g transform="matrix(0.405384,0.177423,-0.340607,0.778235,58.5277,31.1273)">
        <path d="M31.571,21.795C28.95,22.663 26.823,27.032 26.823,32.212C26.823,37.391 28.95,41.76 31.571,42.628C34.191,41.76 36.318,37.391 36.318,32.212C36.318,27.032 34.191,22.663 31.571,21.795Z" style="fill:rgb(43,168,74);"/>
    </g>
    <g transform="matrix(0.405384,0.177423,-0.340607,0.778235,58.5277,40.1273)">
        <path d="M31.571,21.795C28.95,22.663 26.823,27.032 26.823,32.212C26.823,37.391 28.95,41.76 31.571,42.628C34.191,41.76 36.318,37.391 36.318,32.212C36.318,27.032 34.191,22.663 31.571,21.795Z" style="fill:rgb(43,168,74);"/>
    </g>
</svg>
