<?xml version="1.0" encoding="UTF-8" standalone="no"?>
<!DOCTYPE svg PUBLIC "-//W3C//DTD SVG 1.1//EN" "http://www.w3.org/Graphics/SVG/1.1/DTD/svg11.dtd">
<svg width="100%" height="100%" viewBox="0 0 100 100" version="1.1" xmlns="http://www.w3.org/2000/svg" xmlns:xlink="http://www.w3.org/1999/xlink" xml:space="preserve" xmlns:serif="http://www.serif.com/" style="fill-rule:evenodd;clip-rule:evenodd;stroke-linejoin:round;stroke-miterlimit:1.5;">
    <g transform="matrix(2,0,0,2,-2.84217e-14,0)">
        <rect x="0" y="0" width="50" height="50" style="fill:rgb(160,221,255);"/>
    </g>
    <g transform="matrix(2,0,0,2,-2.84217e-14,0)">
        <path d="M25,0C24.989,11.699 30.384,24.933 50,25" style="fill:none;stroke:rgb(36,130,50);stroke-width:7.5px;"/>
    </g>
    <g transform="matrix(2,0,0,2,-2.84217e-14,0)">
        <path d="M25,0C24.989,11.699 21.569,25.815 0,25" style="fill:none;stroke:rgb(36,130,50);stroke-width:7.5px;"/>
    </g>
    <g transform="matrix(1.79926,0.731464,-0.753208,1.85275,20.0727,-0.912474)">
        <path d="M33.841,41.106C32.341,37.365 32.046,32.949 28.31,27.893" style="fill:none;stroke:rgb(43,168,74);stroke-width:7.61px;"/>
    </g>
    <g transform="matrix(0.956607,0.291383,-0.291383,0.956607,22.7934,-7.84865)">
        <g>
            <g transform="matrix(2,0,0,1.57143,-39.5834,-33.4249)">
                <path d="M42.564,47.276C43.449,51.032 41.667,53.797 41.667,55.842C41.667,57.305 42.6,58.494 43.75,58.494C44.9,58.494 45.833,57.305 45.833,55.842C45.833,53.797 43.998,49.869 42.564,47.276Z" style="fill:rgb(136,0,149);"/>
            </g>
            <g transform="matrix(1.84284,0.777135,-0.610606,1.44795,4.71145,-58.5338)">
                <path d="M42.564,47.276C43.449,51.032 41.667,53.797 41.667,55.842C41.667,57.305 42.6,58.494 43.75,58.494C44.9,58.494 45.833,57.305 45.833,55.842C45.833,53.797 43.998,49.869 42.564,47.276Z" style="fill:rgb(136,0,149);"/>
            </g>
            <g transform="matrix(1.33159,1.49227,-1.1725,1.04625,61.0636,-66.5201)">
                <path d="M42.564,47.276C43.449,51.032 41.667,53.797 41.667,55.842C41.667,57.305 42.6,58.494 43.75,58.494C44.9,58.494 45.833,57.305 45.833,55.842C45.833,53.797 43.998,49.869 42.564,47.276Z" style="fill:rgb(136,0,149);"/>
            </g>
            <g transform="matrix(0.830845,-1.81926,1.42942,0.652807,-77.4041,102.321)">
                <path d="M42.564,47.276C43.449,51.032 41.667,53.797 41.667,55.842C41.667,57.305 42.6,58.494 43.75,58.494C44.9,58.494 45.833,57.305 45.833,55.842C45.833,53.797 43.998,49.869 42.564,47.276Z" style="fill:rgb(136,0,149);"/>
            </g>
            <g transform="matrix(1.47246,-1.35346,1.06343,1.15693,-81.8428,51.5981)">
                <path d="M42.564,47.276C43.449,51.032 41.667,53.797 41.667,55.842C41.667,57.305 42.6,58.494 43.75,58.494C44.9,58.494 45.833,57.305 45.833,55.842C45.833,53.797 43.998,49.869 42.564,47.276Z" style="fill:rgb(136,0,149);"/>
            </g>
            <g transform="matrix(1.91058,-0.591333,0.464618,1.50117,-65.6974,-2.97911)">
                <path d="M42.564,47.276C43.449,51.032 41.667,53.797 41.667,55.842C41.667,57.305 42.6,58.494 43.75,58.494C44.9,58.494 45.833,57.305 45.833,55.842C45.833,53.797 43.998,49.869 42.564,47.276Z" style="fill:rgb(136,0,149);"/>
            </g>
            <g transform="matrix(-1.70299,-1.04873,0.824,-1.33806,72.5205,187.521)">
                <path d="M42.564,47.276C43.449,51.032 41.667,53.797 41.667,55.842C41.667,57.305 42.6,58.494 43.75,58.494C44.9,58.494 45.833,57.305 45.833,55.842C45.833,53.797 43.998,49.869 42.564,47.276Z" style="fill:rgb(136,0,149);"/>
            </g>
            <g transform="matrix(-1.16167,-1.62805,1.27918,-0.912738,21.6375,185.674)">
                <path d="M42.564,47.276C43.449,51.032 41.667,53.797 41.667,55.842C41.667,57.305 42.6,58.494 43.75,58.494C44.9,58.494 45.833,57.305 45.833,55.842C45.833,53.797 43.998,49.869 42.564,47.276Z" style="fill:rgb(136,0,149);"/>
            </g>
            <g transform="matrix(-0.351351,-1.9689,1.54699,-0.276062,-30.5337,162.925)">
                <path d="M42.564,47.276C43.449,51.032 41.667,53.797 41.667,55.842C41.667,57.305 42.6,58.494 43.75,58.494C44.9,58.494 45.833,57.305 45.833,55.842C45.833,53.797 43.998,49.869 42.564,47.276Z" style="fill:rgb(136,0,149);"/>
            </g>
            <g transform="matrix(0.253149,1.98392,-1.55879,0.198903,131.254,-40.2399)">
                <path d="M42.564,47.276C43.449,51.032 41.667,53.797 41.667,55.842C41.667,57.305 42.6,58.494 43.75,58.494C44.9,58.494 45.833,57.305 45.833,55.842C45.833,53.797 43.998,49.869 42.564,47.276Z" style="fill:rgb(136,0,149);"/>
            </g>
            <g transform="matrix(-0.537628,1.92639,-1.51359,-0.422422,161.768,0.520552)">
                <path d="M42.564,47.276C43.449,51.032 41.667,53.797 41.667,55.842C41.667,57.305 42.6,58.494 43.75,58.494C44.9,58.494 45.833,57.305 45.833,55.842C45.833,53.797 43.998,49.869 42.564,47.276Z" style="fill:rgb(136,0,149);"/>
            </g>
            <g transform="matrix(-1.31172,1.50977,-1.18624,-1.03064,176.822,55.4086)">
                <path d="M42.564,47.276C43.449,51.032 41.667,53.797 41.667,55.842C41.667,57.305 42.6,58.494 43.75,58.494C44.9,58.494 45.833,57.305 45.833,55.842C45.833,53.797 43.998,49.869 42.564,47.276Z" style="fill:rgb(136,0,149);"/>
            </g>
            <g transform="matrix(-1.94473,0.466946,-0.366886,-1.528,157.444,129.898)">
                <path d="M42.564,47.276C43.449,51.032 41.667,53.797 41.667,55.842C41.667,57.305 42.6,58.494 43.75,58.494C44.9,58.494 45.833,57.305 45.833,55.842C45.833,53.797 43.998,49.869 42.564,47.276Z" style="fill:rgb(136,0,149);"/>
            </g>
            <g transform="matrix(-1.95709,-0.412054,0.323756,-1.53772,116.803,169.743)">
                <path d="M42.564,47.276C43.449,51.032 41.667,53.797 41.667,55.842C41.667,57.305 42.6,58.494 43.75,58.494C44.9,58.494 45.833,57.305 45.833,55.842C45.833,53.797 43.998,49.869 42.564,47.276Z" style="fill:rgb(136,0,149);"/>
            </g>
        </g>
        <g transform="matrix(1.0625,0,0,1.0625,-4.48574,-4.79898)">
            <circle cx="48.397" cy="61.218" r="3.846" style="fill:rgb(255,247,68);"/>
        </g>
    </g>
</svg>
