<?xml version="1.0" encoding="UTF-8" standalone="no"?>
<!DOCTYPE svg PUBLIC "-//W3C//DTD SVG 1.1//EN" "http://www.w3.org/Graphics/SVG/1.1/DTD/svg11.dtd">
<svg width="100%" height="100%" viewBox="0 0 100 100" version="1.1" xmlns="http://www.w3.org/2000/svg" xmlns:xlink="http://www.w3.org/1999/xlink" xml:space="preserve" xmlns:serif="http://www.serif.com/" style="fill-rule:evenodd;clip-rule:evenodd;stroke-linejoin:round;stroke-miterlimit:1.5;">
    <g transform="matrix(2,0,0,2,-2.84217e-14,0)">
        <rect x="0" y="0" width="50" height="50" style="fill:rgb(160,221,255);"/>
    </g>
    <g transform="matrix(2,0,0,2,-2.84217e-14,0)">
        <path d="M50,25C35.956,25.105 23.875,39.613 16.186,22.716" style="fill:none;stroke:rgb(36,130,50);stroke-width:7.5px;"/>
    </g>
    <g transform="matrix(1.79926,0.731464,-0.753208,1.85275,20.0727,-0.912474)">
        <path d="M38.718,28.714C36.072,21.818 38.452,20.542 35.101,12.537C31.621,4.222 15.523,-2.595 14.451,-5.213" style="fill:none;stroke:rgb(43,168,74);stroke-width:7.61px;stroke-linecap:round;"/>
    </g>
    <g transform="matrix(-0.831313,0.20226,-0.22679,-0.932137,128.861,62.8637)">
        <path d="M52.845,50.002C52.06,51.257 51.422,54.199 51.422,57.533C51.422,60.866 52.06,63.809 52.845,65.064C54.022,64.437 54.978,61.278 54.978,57.533C54.978,53.788 54.022,50.629 52.845,50.002Z" style="fill:rgb(43,168,74);"/>
    </g>
    <g transform="matrix(1.43812,0,0,1.43812,-32.8483,-15.8795)">
        <circle cx="37.26" cy="49.84" r="4.167" style="fill:rgb(57,212,222);"/>
    </g>
    <g transform="matrix(1.43812,0,0,1.43812,-35.7437,-41.4616)">
        <circle cx="37.26" cy="49.84" r="4.167" style="fill:rgb(0,182,198);"/>
    </g>
    <g transform="matrix(1.43812,0,0,1.43812,-26.8561,-45.8405)">
        <circle cx="37.26" cy="49.84" r="4.167" style="fill:rgb(57,212,222);"/>
    </g>
    <g transform="matrix(1.43812,0,0,1.43812,-17.9712,-45.8405)">
        <circle cx="37.26" cy="49.84" r="4.167" style="fill:rgb(57,212,222);"/>
    </g>
    <g transform="matrix(1.43812,0,0,1.43812,-35.7437,-33.8561)">
        <circle cx="37.26" cy="49.84" r="4.167" style="fill:rgb(57,212,222);"/>
    </g>
    <g transform="matrix(1.43812,0,0,1.43812,-41.7359,-35.4694)">
        <circle cx="37.26" cy="49.84" r="4.167" style="fill:rgb(0,182,198);"/>
    </g>
    <g transform="matrix(1.43812,0,0,1.43812,-26.8561,-39.8483)">
        <circle cx="37.26" cy="49.84" r="4.167" style="fill:rgb(0,182,198);"/>
    </g>
    <g transform="matrix(1.43812,0,0,1.43812,-20.8639,-17.2624)">
        <circle cx="37.26" cy="49.84" r="4.167" style="fill:rgb(57,212,222);"/>
    </g>
    <g transform="matrix(1.43812,0,0,1.43812,-32.8483,-21.8717)">
        <circle cx="37.26" cy="49.84" r="4.167" style="fill:rgb(57,212,222);"/>
    </g>
    <g transform="matrix(1.63172,0,0,1.63172,-48.1425,-38.3192)">
        <circle cx="37.26" cy="49.84" r="4.167" style="fill:rgb(57,212,222);"/>
    </g>
    <g transform="matrix(1.43812,0,0,1.43812,-14.8717,-33.8561)">
        <circle cx="37.26" cy="49.84" r="4.167" style="fill:rgb(57,212,222);"/>
    </g>
    <g transform="matrix(1.43812,0,0,1.43812,-23.7593,-35.4694)">
        <circle cx="37.26" cy="49.84" r="4.167" style="fill:rgb(57,212,222);"/>
    </g>
    <g transform="matrix(1.98264,0,0,1.98264,-35.9908,-67.7693)">
        <circle cx="37.26" cy="49.84" r="4.167" style="fill:rgb(0,182,198);"/>
    </g>
    <g transform="matrix(1.43812,0,0,1.43812,-23.9634,-27.8639)">
        <circle cx="37.26" cy="49.84" r="4.167" style="fill:rgb(57,212,222);"/>
    </g>
    <g transform="matrix(1.43812,0,0,1.43812,-29.9556,-29.4772)">
        <circle cx="37.26" cy="49.84" r="4.167" style="fill:rgb(57,212,222);"/>
    </g>
    <g transform="matrix(1.43812,0,0,1.43812,-14.8717,-23.485)">
        <circle cx="37.26" cy="49.84" r="4.167" style="fill:rgb(0,182,198);"/>
    </g>
    <g transform="matrix(1.43812,0,0,1.43812,-11.979,-29.4772)">
        <circle cx="37.26" cy="49.84" r="4.167" style="fill:rgb(0,182,198);"/>
    </g>
    <g transform="matrix(1.43812,0,0,1.43812,-11.979,-35.4694)">
        <circle cx="37.26" cy="49.84" r="4.167" style="fill:rgb(57,212,222);"/>
    </g>
    <g transform="matrix(1.43812,0,0,1.43812,-26.8561,-17.4928)">
        <circle cx="37.26" cy="49.84" r="4.167" style="fill:rgb(0,182,198);"/>
    </g>
    <g transform="matrix(1.43812,0,0,1.43812,-38.8404,-17.4928)">
        <circle cx="37.26" cy="49.84" r="4.167" style="fill:rgb(0,182,198);"/>
    </g>
    <g transform="matrix(1.14233,0,0,1.14233,-25.8457,-26.8663)">
        <path d="M43.987,54.294C44.159,53.4 45.012,52.696 46.022,52.696C47.032,52.696 47.885,53.4 48.056,54.294C48.81,53.783 49.912,53.887 50.626,54.601C51.34,55.314 51.445,56.415 50.934,57.168C51.828,57.339 52.533,58.191 52.533,59.2C52.533,60.209 51.828,61.062 50.934,61.233C51.445,61.986 51.34,63.087 50.626,63.8C49.912,64.513 48.81,64.618 48.056,64.107C47.885,65.001 47.032,65.705 46.022,65.705C45.012,65.705 44.159,65.001 43.987,64.107C43.233,64.618 42.131,64.513 41.417,63.8C40.703,63.087 40.598,61.986 41.11,61.233C40.215,61.062 39.51,60.209 39.51,59.2C39.51,58.191 40.215,57.339 41.11,57.168C40.598,56.415 40.703,55.314 41.417,54.601C42.131,53.887 43.233,53.783 43.987,54.294Z" style="fill:rgb(57,33,105);"/>
    </g>
</svg>
