<?xml version="1.0" encoding="UTF-8" standalone="no"?>
<!DOCTYPE svg PUBLIC "-//W3C//DTD SVG 1.1//EN" "http://www.w3.org/Graphics/SVG/1.1/DTD/svg11.dtd">
<svg width="100%" height="100%" viewBox="0 0 100 100" version="1.1" xmlns="http://www.w3.org/2000/svg" xmlns:xlink="http://www.w3.org/1999/xlink" xml:space="preserve" xmlns:serif="http://www.serif.com/" style="fill-rule:evenodd;clip-rule:evenodd;stroke-linejoin:round;stroke-miterlimit:1.5;">
    <g transform="matrix(2,0,0,2,-2.84217e-14,0)">
        <rect x="0" y="0" width="50" height="50" style="fill:rgb(160,221,255);"/>
    </g>
    <g transform="matrix(1.79926,0.731464,-0.753208,1.85275,20.0727,-0.912474)">
        <path d="M15.263,24.386C24.11,23.335 29.641,30.889 33.841,41.106" style="fill:none;stroke:rgb(36,130,50);stroke-width:7.61px;"/>
    </g>
    <g transform="matrix(2,0,0,2,-2.84217e-14,0)">
        <path d="M0,25C7.289,24.826 20.225,30.36 29.747,30.436C37.809,30.501 42.358,25.11 50,25" style="fill:none;stroke:rgb(43,168,74);stroke-width:7.5px;"/>
    </g>
    <g transform="matrix(1,0,0,1,2.24359,0)">
        <path d="M72.516,42.431C68.99,50.962 48.157,61.859 39.984,60.256" style="fill:none;stroke:rgb(43,168,74);stroke-width:5px;stroke-linecap:round;"/>
    </g>
    <g transform="matrix(1,0,0,1,2.24359,0)">
        <path d="M63.702,42.431C62.099,45.353 48.157,61.859 39.984,60.256" style="fill:none;stroke:rgb(43,168,74);stroke-width:5px;stroke-linecap:round;"/>
    </g>
</svg>
