<?xml version="1.0" encoding="UTF-8" standalone="no"?>
<!DOCTYPE svg PUBLIC "-//W3C//DTD SVG 1.1//EN" "http://www.w3.org/Graphics/SVG/1.1/DTD/svg11.dtd">
<svg width="100%" height="100%" viewBox="0 0 100 100" version="1.1" xmlns="http://www.w3.org/2000/svg" xmlns:xlink="http://www.w3.org/1999/xlink" xml:space="preserve" xmlns:serif="http://www.serif.com/" style="fill-rule:evenodd;clip-rule:evenodd;stroke-linejoin:round;stroke-miterlimit:1.5;">
    <g transform="matrix(2,0,0,2,-2.84217e-14,0)">
        <rect x="0" y="0" width="50" height="50" style="fill:rgb(160,221,255);"/>
    </g>
    <g transform="matrix(2,0,0,2,-2.84217e-14,0)">
        <path d="M25,0C24.989,11.699 11.313,12.193 11.699,19.071" style="fill:none;stroke:rgb(36,130,50);stroke-width:7.5px;"/>
    </g>
    <g transform="matrix(1.79926,0.731464,-0.753208,1.85275,20.0727,-0.912474)">
        <path d="M47.994,8.532C41.658,11.111 22.736,23.563 30.905,42.265" style="fill:none;stroke:rgb(43,168,74);stroke-width:7.61px;"/>
    </g>
    <g transform="matrix(-2.15859,0.202141,-0.150394,-1.606,163.691,142.033)">
        <path d="M59.274,55.401C59.274,55.401 57.016,61.772 57.016,64.502C57.016,66.177 58.027,67.537 59.274,67.537C60.52,67.537 61.532,66.177 61.532,64.502C61.532,61.772 59.274,55.401 59.274,55.401Z" style="fill:rgb(94,119,197);"/>
    </g>
    <g transform="matrix(0.412035,3.3494,-1.65163,0.20318,99.1583,-208.214)">
        <path d="M75.881,50C71.105,50 67.228,55.852 67.228,63.061C67.228,70.269 71.105,76.122 75.881,76.122C74.449,73.074 73.285,68.271 73.285,63.061C73.285,57.851 74.449,53.048 75.881,50Z" style="fill:rgb(94,119,197);"/>
    </g>
    <g transform="matrix(0.3294,2.67766,-1.24731,0.153441,79.9091,-153.456)">
        <path d="M75.881,50C71.105,50 67.228,55.852 67.228,63.061C67.228,70.269 71.105,76.122 75.881,76.122C74.449,73.074 73.285,68.271 73.285,63.061C73.285,57.851 74.449,53.048 75.881,50Z" style="fill:rgb(112,144,220);"/>
    </g>
    <g transform="matrix(0.282581,2.29707,-0.904795,0.111306,62.4718,-117.801)">
        <path d="M75.881,50C71.105,50 67.228,55.852 67.228,63.061C67.228,70.269 71.105,76.122 75.881,76.122C74.449,73.074 73.285,68.271 73.285,63.061C73.285,57.851 74.449,53.048 75.881,50Z" style="fill:rgb(94,119,197);"/>
    </g>
    <g transform="matrix(0.158257,1.28646,-0.425838,0.0523856,41.7209,-37.2463)">
        <path d="M75.881,50C71.105,50 67.228,55.852 67.228,63.061C67.228,70.269 71.105,76.122 75.881,76.122C74.449,73.074 73.285,68.271 73.285,63.061C73.285,57.851 74.449,53.048 75.881,50Z" style="fill:rgb(112,144,220);"/>
    </g>
    <g transform="matrix(0.289342,0.805153,-0.902805,0.324434,99.3083,13.7864)">
        <path d="M52.845,50.002C51.667,50.629 50.711,53.788 50.711,57.533C50.711,61.278 51.667,64.437 52.845,65.064C54.022,64.437 54.978,61.278 54.978,57.533C54.978,53.788 54.022,50.629 52.845,50.002Z" style="fill:rgb(43,168,74);"/>
    </g>
</svg>
