<?xml version="1.0" encoding="UTF-8" standalone="no"?>
<!DOCTYPE svg PUBLIC "-//W3C//DTD SVG 1.1//EN" "http://www.w3.org/Graphics/SVG/1.1/DTD/svg11.dtd">
<svg width="100%" height="100%" viewBox="0 0 100 100" version="1.1" xmlns="http://www.w3.org/2000/svg" xmlns:xlink="http://www.w3.org/1999/xlink" xml:space="preserve" xmlns:serif="http://www.serif.com/" style="fill-rule:evenodd;clip-rule:evenodd;stroke-linecap:round;stroke-linejoin:round;stroke-miterlimit:1.5;">
    <g transform="matrix(2,0,0,2,-2.84217e-14,0)">
        <rect x="0" y="0" width="50" height="50" style="fill:rgb(160,221,255);"/>
    </g>
    <g transform="matrix(0.809659,0.74535,-0.764061,0.829984,50.2755,-27.7597)">
        <path d="M54.127,19.872C54.127,19.872 50,38.144 50,45.974C50,48.196 51.849,50 54.127,50C56.404,50 58.253,48.196 58.253,45.974C58.253,38.144 54.127,19.872 54.127,19.872Z" style="fill:rgb(213,144,240);"/>
    </g>
    <g transform="matrix(-1.79926,-0.731464,0.753208,-1.85275,79.9273,100.912)">
        <path d="M47.994,8.532C39.339,12.055 25.466,8.577 21.665,20.743" style="fill:none;stroke:rgb(36,130,50);stroke-width:7.61px;"/>
    </g>
    <g transform="matrix(-1.79926,-0.731464,0.753208,-1.85275,60.376,97.1129)">
        <path d="M35.493,10.616C34.609,10.976 36.349,8.569 35.417,8.595C30.725,8.727 23.631,11.501 19.022,10.159C17.072,9.591 15.497,7.872 15.6,5.739C15.665,4.395 16.441,2.816 17.901,2.536C19.141,2.297 22.08,2.11 22.151,4.184C22.216,6.073 20.192,7.794 18.988,5.625" style="fill:none;stroke:rgb(36,130,50);stroke-width:1.52px;"/>
    </g>
    <g transform="matrix(1.15377,-0.196254,0.19521,1.14763,-20.4518,0.768477)">
        <path d="M54.127,19.872C54.127,19.872 50,38.057 50,45.851C50,48.141 51.849,50 54.127,50C56.404,50 58.253,48.141 58.253,45.851C58.253,38.057 54.127,19.872 54.127,19.872Z" style="fill:rgb(213,181,255);"/>
    </g>
    <g transform="matrix(1.49022,0.233778,-0.182183,1.16133,-23.8934,-22.864)">
        <path d="M54.127,19.872C54.127,19.872 50,37.255 50,44.705C50,47.627 51.849,50 54.127,50C56.404,50 58.253,47.627 58.253,44.705C58.253,37.255 54.127,19.872 54.127,19.872Z" style="fill:rgb(213,181,255);"/>
    </g>
    <g transform="matrix(1.15182,0.309907,-0.330464,1.22823,2.44266,-27.9757)">
        <path d="M54.127,19.872C54.127,19.872 50,38.253 50,46.13C50,48.266 51.849,50 54.127,50C56.404,50 58.253,48.266 58.253,46.13C58.253,38.253 54.127,19.872 54.127,19.872Z" style="fill:rgb(213,144,240);"/>
    </g>
    <g transform="matrix(1.36829,0.634986,-0.532393,1.14722,0.956437,-39.7897)">
        <path d="M54.127,19.872C54.127,19.872 50,37.516 50,45.078C50,47.795 51.849,50 54.127,50C56.404,50 58.253,47.795 58.253,45.078C58.253,37.516 54.127,19.872 54.127,19.872Z" style="fill:rgb(213,181,255);"/>
    </g>
    <g transform="matrix(1.30938,0.748957,-0.668229,1.16824,13.7166,-46.0472)">
        <path d="M54.127,19.872C54.127,19.872 50,37.724 50,45.375C50,47.928 51.849,50 54.127,50C56.404,50 58.253,47.928 58.253,45.375C58.253,37.724 54.127,19.872 54.127,19.872Z" style="fill:rgb(213,144,240);"/>
    </g>
    <g transform="matrix(0.657791,1.22599,-1.07627,0.577458,69.2814,-43.6979)">
        <path d="M54.127,19.872C54.127,19.872 50,37.671 50,45.299C50,47.894 51.849,50 54.127,50C56.404,50 58.253,47.894 58.253,45.299C58.253,37.671 54.127,19.872 54.127,19.872Z" style="fill:rgb(213,181,255);"/>
    </g>
    <g transform="matrix(1.1098,1.02165,-0.739271,0.803055,27.7279,-42.1796)">
        <path d="M54.127,19.872C54.127,19.872 50,36.97 50,44.297C50,47.445 51.849,50 54.127,50C56.404,50 58.253,47.445 58.253,44.297C58.253,36.97 54.127,19.872 54.127,19.872Z" style="fill:rgb(213,181,255);"/>
    </g>
    <g transform="matrix(0.0470461,1.50771,-1.36289,0.0425271,108.652,-39.9896)">
        <path d="M54.127,19.872C54.127,19.872 50,37.766 50,45.435C50,47.954 51.849,50 54.127,50C56.404,50 58.253,47.954 58.253,45.435C58.253,37.766 54.127,19.872 54.127,19.872Z" style="fill:rgb(213,144,240);"/>
    </g>
    <g transform="matrix(0.142151,1.50173,-1.11486,0.105531,99.734,-36.8859)">
        <path d="M54.127,19.872C54.127,19.872 50,37.071 50,44.441C50,47.509 51.849,50 54.127,50C56.404,50 58.253,47.509 58.253,44.441C58.253,37.071 54.127,19.872 54.127,19.872Z" style="fill:rgb(213,181,255);"/>
    </g>
    <g transform="matrix(-0.214299,1.49315,-1.26562,-0.181644,119.444,-23.6696)">
        <path d="M54.127,19.872C54.127,19.872 50,37.554 50,45.132C50,47.819 51.849,50 54.127,50C56.404,50 58.253,47.819 58.253,45.132C58.253,37.554 54.127,19.872 54.127,19.872Z" style="fill:rgb(213,144,240);"/>
    </g>
    <g transform="matrix(0.852845,-0.646063,0.555634,0.733473,-21.9055,45.9765)">
        <path d="M54.127,19.872C54.127,19.872 50,37.603 50,45.202C50,47.85 51.849,50 54.127,50C56.404,50 58.253,47.85 58.253,45.202C58.253,37.603 54.127,19.872 54.127,19.872Z" style="fill:rgb(213,181,255);"/>
    </g>
    <g transform="matrix(1.48983,-0.569041,0.404031,1.05781,-48.4476,30.6382)">
        <path d="M54.127,19.872C54.127,19.872 50,36.893 50,44.188C50,47.396 51.849,50 54.127,50C56.404,50 58.253,47.396 58.253,44.188C58.253,36.893 54.127,19.872 54.127,19.872Z" style="fill:rgb(213,144,240);"/>
    </g>
</svg>
