<?xml version="1.0" encoding="UTF-8" standalone="no"?>
<!DOCTYPE svg PUBLIC "-//W3C//DTD SVG 1.1//EN" "http://www.w3.org/Graphics/SVG/1.1/DTD/svg11.dtd">
<svg width="100%" height="100%" viewBox="0 0 100 100" version="1.1" xmlns="http://www.w3.org/2000/svg" xmlns:xlink="http://www.w3.org/1999/xlink" xml:space="preserve" xmlns:serif="http://www.serif.com/" style="fill-rule:evenodd;clip-rule:evenodd;stroke-linecap:round;stroke-linejoin:round;stroke-miterlimit:1.5;">
    <g transform="matrix(2,0,0,2,-2.84217e-14,0)">
        <rect x="0" y="0" width="50" height="50" style="fill:rgb(160,221,255);"/>
    </g>
    <g transform="matrix(1.2554,0,0,1.2554,-17.8174,-6.99825)">
        <path d="M69.391,28.946C73.731,26.025 77.982,15.365 80.659,16.314C82.872,17.098 81.141,19.593 80.434,18.46" style="fill:none;stroke:rgb(86,128,228);stroke-width:0.8px;"/>
    </g>
    <g transform="matrix(-0.558991,-0.552669,-1.44212,1.45861,151.891,27.1895)">
        <path d="M72.374,28.898C71.99,25.662 77.063,16.82 80.561,17.214C84.403,17.647 81.141,19.593 80.434,18.46" style="fill:none;stroke:rgb(86,128,228);stroke-width:0.64px;"/>
    </g>
    <g transform="matrix(1.2554,0,0,1.2554,-17.8174,-6.99825)">
        <path d="M69.391,28.946C73.731,26.025 75.796,18.548 78.473,19.497C80.686,20.281 78.891,22.325 78.183,21.193" style="fill:none;stroke:rgb(86,128,228);stroke-width:0.8px;"/>
    </g>
    <g transform="matrix(-1.79926,0.731464,0.753208,1.85275,79.9273,-0.912474)">
        <path d="M47.994,8.532C39.339,12.055 24.42,18.419 33.841,41.106" style="fill:none;stroke:rgb(43,168,74);stroke-width:7.61px;stroke-linecap:butt;"/>
    </g>
    <g transform="matrix(2,0,0,1.34936,-2.84217e-14,32.5321)">
        <path d="M34.696,-0.95C29.38,4.157 24.786,12.233 25,50" style="fill:none;stroke:rgb(36,130,50);stroke-width:8.79px;stroke-linecap:butt;"/>
    </g>
    <g transform="matrix(0.457701,0.429872,-0.675986,0.719749,46.6493,-17.6312)">
        <path d="M77.644,13.645C80.343,4.167 85.741,4.167 88.44,7.468C91.14,10.769 91.14,17.372 88.44,23.974C86.551,28.926 81.693,33.878 77.644,37.179C73.596,33.878 68.737,28.926 66.848,23.974C64.149,17.372 64.149,10.769 66.848,7.468C69.547,4.167 74.945,4.167 77.644,13.645Z" style="fill:rgb(124,135,228);"/>
    </g>
    <g transform="matrix(0.749522,0.703949,-0.675986,0.719749,23.991,-38.9117)">
        <path d="M77.644,23.718C80.343,4.167 85.741,4.167 88.44,7.468C91.14,10.769 91.14,17.372 88.44,23.974C86.551,28.926 81.693,33.878 77.644,37.179C73.596,33.878 68.737,28.926 66.848,23.974C64.149,17.372 64.149,10.769 66.848,7.468C69.547,4.167 74.945,4.167 77.644,23.718Z" style="fill:rgb(86,128,228);"/>
    </g>
    <g transform="matrix(1.27279,1.1954,-0.585871,0.6238,-19.9883,-73.5029)">
        <path d="M77.644,27.668C80.343,4.167 85.741,4.167 88.44,7.468C91.14,10.769 91.14,17.372 88.44,23.974C86.551,28.926 81.693,33.878 77.644,37.179C73.596,33.878 68.737,28.926 66.848,23.974C64.149,17.372 64.149,10.769 66.848,7.468C69.547,4.167 74.945,4.167 77.644,27.668Z" style="fill:rgb(124,135,228);"/>
    </g>
    <g transform="matrix(0.441341,0.0321562,-0.0617317,0.847262,19.4713,13.0711)">
        <path d="M31.571,21.795C28.95,22.663 26.823,27.032 26.823,32.212C26.823,37.391 28.95,41.76 31.571,42.628C34.191,41.76 36.318,37.391 36.318,32.212C36.318,27.032 34.191,22.663 31.571,21.795Z" style="fill:rgb(43,168,74);"/>
    </g>
    <g transform="matrix(0.405384,0.177423,-0.340607,0.778235,31.7649,12.0568)">
        <path d="M31.571,21.795C28.95,22.663 26.823,27.032 26.823,32.212C26.823,37.391 28.95,41.76 31.571,42.628C34.191,41.76 36.318,37.391 36.318,32.212C36.318,27.032 34.191,22.663 31.571,21.795Z" style="fill:rgb(43,168,74);"/>
    </g>
    <g transform="matrix(0.421769,-0.13389,0.257035,0.809689,7.64587,20.5443)">
        <path d="M31.571,21.795C28.95,22.663 26.823,27.032 26.823,32.212C26.823,37.391 28.95,41.76 31.571,42.628C34.191,41.76 36.318,37.391 36.318,32.212C36.318,27.032 34.191,22.663 31.571,21.795Z" style="fill:rgb(43,168,74);"/>
    </g>
</svg>
