<?xml version="1.0" encoding="UTF-8" standalone="no"?>
<!DOCTYPE svg PUBLIC "-//W3C//DTD SVG 1.1//EN" "http://www.w3.org/Graphics/SVG/1.1/DTD/svg11.dtd">
<svg width="100%" height="100%" viewBox="0 0 100 100" version="1.1" xmlns="http://www.w3.org/2000/svg" xmlns:xlink="http://www.w3.org/1999/xlink" xml:space="preserve" xmlns:serif="http://www.serif.com/" style="fill-rule:evenodd;clip-rule:evenodd;stroke-linecap:round;stroke-linejoin:round;stroke-miterlimit:1.5;">
    <g transform="matrix(2,0,0,2,-2.84217e-14,0)">
        <rect x="0" y="0" width="50" height="50" style="fill:rgb(160,221,255);"/>
    </g>
    <g transform="matrix(2,0,0,2,-2.84217e-14,0)">
        <path d="M25,0C24.994,6.656 33.496,15.081 33.476,25C33.461,32.515 24.903,40.888 25,50" style="fill:none;stroke:rgb(36,130,50);stroke-width:7.5px;"/>
    </g>
    <g transform="matrix(1.79926,0.731464,-0.753208,1.85275,20.0727,-0.912474)">
        <path d="M47.994,8.532C41.658,11.111 23.168,10.678 13.618,17.692" style="fill:none;stroke:rgb(43,168,74);stroke-width:7.61px;"/>
    </g>
    <g transform="matrix(0.828149,-0.214849,0.240907,0.928589,27.4887,-3.80798)">
        <path d="M52.845,50.002C51.667,50.629 50.711,53.788 50.711,57.533C50.711,61.278 51.667,64.437 52.845,65.064C54.022,64.437 54.978,61.278 54.978,57.533C54.978,53.788 54.022,50.629 52.845,50.002Z" style="fill:rgb(43,168,74);"/>
    </g>
    <g transform="matrix(0.853687,0.0566496,-0.0635202,0.957225,45.1281,-20.4738)">
        <path d="M52.845,50.002C51.667,50.629 50.711,53.788 50.711,57.533C50.711,61.278 51.667,64.437 52.845,65.064C54.022,64.437 54.978,61.278 54.978,57.533C54.978,53.788 54.022,50.629 52.845,50.002Z" style="fill:rgb(43,168,74);"/>
    </g>
    <g transform="matrix(0.774221,0.364106,-0.408266,0.86812,71.0341,-30.9237)">
        <path d="M52.845,50.002C51.667,50.629 50.711,53.788 50.711,57.533C50.711,61.278 51.667,64.437 52.845,65.064C54.022,64.437 54.978,61.278 54.978,57.533C54.978,53.788 54.022,50.629 52.845,50.002Z" style="fill:rgb(43,168,74);"/>
    </g>
    <g transform="matrix(1.10414,0.33632,-0.33632,1.10414,-6.40871,-39.5901)">
        <g transform="matrix(2,0,0,1.57143,-39.5834,-33.4249)">
            <path d="M42.564,47.276C43.449,51.032 41.667,53.797 41.667,55.842C41.667,57.305 42.6,58.494 43.75,58.494C44.9,58.494 45.833,57.305 45.833,55.842C45.833,53.797 43.998,49.869 42.564,47.276Z" style="fill:rgb(232,130,50);"/>
        </g>
        <g transform="matrix(1.84284,0.777135,-0.610606,1.44795,4.71145,-58.5338)">
            <path d="M42.564,47.276C43.449,51.032 41.667,53.797 41.667,55.842C41.667,57.305 42.6,58.494 43.75,58.494C44.9,58.494 45.833,57.305 45.833,55.842C45.833,53.797 43.998,49.869 42.564,47.276Z" style="fill:rgb(232,130,50);"/>
        </g>
        <g transform="matrix(1.33159,1.49227,-1.1725,1.04625,61.0636,-66.5201)">
            <path d="M42.564,47.276C43.449,51.032 41.667,53.797 41.667,55.842C41.667,57.305 42.6,58.494 43.75,58.494C44.9,58.494 45.833,57.305 45.833,55.842C45.833,53.797 43.998,49.869 42.564,47.276Z" style="fill:rgb(232,130,50);"/>
        </g>
        <g transform="matrix(0.830845,-1.81926,1.42942,0.652807,-77.4041,102.321)">
            <path d="M42.564,47.276C43.449,51.032 41.667,53.797 41.667,55.842C41.667,57.305 42.6,58.494 43.75,58.494C44.9,58.494 45.833,57.305 45.833,55.842C45.833,53.797 43.998,49.869 42.564,47.276Z" style="fill:rgb(232,130,50);"/>
        </g>
        <g transform="matrix(1.47246,-1.35346,1.06343,1.15693,-81.8428,51.5981)">
            <path d="M42.564,47.276C43.449,51.032 41.667,53.797 41.667,55.842C41.667,57.305 42.6,58.494 43.75,58.494C44.9,58.494 45.833,57.305 45.833,55.842C45.833,53.797 43.998,49.869 42.564,47.276Z" style="fill:rgb(232,130,50);"/>
        </g>
        <g transform="matrix(1.91058,-0.591333,0.464618,1.50117,-65.6974,-2.97911)">
            <path d="M42.564,47.276C43.449,51.032 41.667,53.797 41.667,55.842C41.667,57.305 42.6,58.494 43.75,58.494C44.9,58.494 45.833,57.305 45.833,55.842C45.833,53.797 43.998,49.869 42.564,47.276Z" style="fill:rgb(232,130,50);"/>
        </g>
        <g transform="matrix(-1.70299,-1.04873,0.824,-1.33806,72.5205,187.521)">
            <path d="M42.564,47.276C43.449,51.032 41.667,53.797 41.667,55.842C41.667,57.305 42.6,58.494 43.75,58.494C44.9,58.494 45.833,57.305 45.833,55.842C45.833,53.797 43.998,49.869 42.564,47.276Z" style="fill:rgb(232,130,50);"/>
        </g>
        <g transform="matrix(-1.16167,-1.62805,1.27918,-0.912738,21.6375,185.674)">
            <path d="M42.564,47.276C43.449,51.032 41.667,53.797 41.667,55.842C41.667,57.305 42.6,58.494 43.75,58.494C44.9,58.494 45.833,57.305 45.833,55.842C45.833,53.797 43.998,49.869 42.564,47.276Z" style="fill:rgb(232,130,50);"/>
        </g>
        <g transform="matrix(-0.351351,-1.9689,1.54699,-0.276062,-30.5337,162.925)">
            <path d="M42.564,47.276C43.449,51.032 41.667,53.797 41.667,55.842C41.667,57.305 42.6,58.494 43.75,58.494C44.9,58.494 45.833,57.305 45.833,55.842C45.833,53.797 43.998,49.869 42.564,47.276Z" style="fill:rgb(232,130,50);"/>
        </g>
        <g transform="matrix(0.253149,1.98392,-1.55879,0.198903,131.254,-40.2399)">
            <path d="M42.564,47.276C43.449,51.032 41.667,53.797 41.667,55.842C41.667,57.305 42.6,58.494 43.75,58.494C44.9,58.494 45.833,57.305 45.833,55.842C45.833,53.797 43.998,49.869 42.564,47.276Z" style="fill:rgb(232,130,50);"/>
        </g>
        <g transform="matrix(-0.537628,1.92639,-1.51359,-0.422422,161.768,0.520552)">
            <path d="M42.564,47.276C43.449,51.032 41.667,53.797 41.667,55.842C41.667,57.305 42.6,58.494 43.75,58.494C44.9,58.494 45.833,57.305 45.833,55.842C45.833,53.797 43.998,49.869 42.564,47.276Z" style="fill:rgb(232,130,50);"/>
        </g>
        <g transform="matrix(-1.31172,1.50977,-1.18624,-1.03064,176.822,55.4086)">
            <path d="M42.564,47.276C43.449,51.032 41.667,53.797 41.667,55.842C41.667,57.305 42.6,58.494 43.75,58.494C44.9,58.494 45.833,57.305 45.833,55.842C45.833,53.797 43.998,49.869 42.564,47.276Z" style="fill:rgb(232,130,50);"/>
        </g>
        <g transform="matrix(-1.94473,0.466946,-0.366886,-1.528,157.444,129.898)">
            <path d="M42.564,47.276C43.449,51.032 41.667,53.797 41.667,55.842C41.667,57.305 42.6,58.494 43.75,58.494C44.9,58.494 45.833,57.305 45.833,55.842C45.833,53.797 43.998,49.869 42.564,47.276Z" style="fill:rgb(232,130,50);"/>
        </g>
        <g transform="matrix(-1.95709,-0.412054,0.323756,-1.53772,116.803,169.743)">
            <path d="M42.564,47.276C43.449,51.032 41.667,53.797 41.667,55.842C41.667,57.305 42.6,58.494 43.75,58.494C44.9,58.494 45.833,57.305 45.833,55.842C45.833,53.797 43.998,49.869 42.564,47.276Z" style="fill:rgb(232,130,50);"/>
        </g>
    </g>
    <g transform="matrix(1.17314,0.35734,-0.35734,1.17314,-9.74759,-46.3975)">
        <circle cx="48.397" cy="61.218" r="3.846" style="fill:rgb(255,247,255);"/>
    </g>
</svg>
