<?xml version="1.0" encoding="UTF-8" standalone="no"?>
<!DOCTYPE svg PUBLIC "-//W3C//DTD SVG 1.1//EN" "http://www.w3.org/Graphics/SVG/1.1/DTD/svg11.dtd">
<svg width="100%" height="100%" viewBox="0 0 100 100" version="1.1" xmlns="http://www.w3.org/2000/svg" xmlns:xlink="http://www.w3.org/1999/xlink" xml:space="preserve" xmlns:serif="http://www.serif.com/" style="fill-rule:evenodd;clip-rule:evenodd;stroke-linejoin:round;stroke-miterlimit:1.5;">
    <g transform="matrix(2,0,0,2,-2.84217e-14,0)">
        <rect x="0" y="0" width="50" height="50" style="fill:rgb(160,221,255);"/>
    </g>
    <g transform="matrix(2,0,0,2,-2.84217e-14,0)">
        <path d="M50,25C38.658,25.025 39.427,39.444 29.647,36.579" style="fill:none;stroke:rgb(36,130,50);stroke-width:7.5px;"/>
    </g>
    <g transform="matrix(1.79926,0.731464,-0.753208,1.85275,20.0727,-0.912474)">
        <path d="M0.298,27.362C19.208,20.117 21.136,7.395 14.451,-5.213" style="fill:none;stroke:rgb(43,168,74);stroke-width:7.61px;stroke-linecap:round;"/>
    </g>
    <g transform="matrix(1,0,0,1,-12.7804,22.9167)">
        <path d="M69.511,27.083L77.722,35.294L88.067,40.565L82.796,50.911L80.98,62.379L69.511,60.563L58.043,62.379L56.226,50.911L50.955,40.565L61.301,35.294L69.511,27.083Z" style="fill:rgb(252,50,56);"/>
    </g>
    <g transform="matrix(0.970222,0.242216,-0.242216,0.970222,0.57539,7.4674)">
        <path d="M69.511,27.083L77.722,35.294L88.067,40.565L82.796,50.911L80.98,62.379L69.511,60.563L58.043,62.379L56.226,50.911L50.955,40.565L61.301,35.294L69.511,27.083Z" style="fill:rgb(252,140,218);"/>
    </g>
    <g transform="matrix(0.880245,0.47452,-0.47452,0.880245,17.6539,-4.48784)">
        <path d="M69.511,27.083L77.722,35.294L88.067,40.565L82.796,50.911L80.98,62.379L69.511,60.563L58.043,62.379L56.226,50.911L50.955,40.565L61.301,35.294L69.511,27.083Z" style="fill:rgb(252,50,56);"/>
    </g>
    <g transform="matrix(0.775743,0.631049,-0.631049,0.775743,32.2114,-10.4992)">
        <path d="M69.511,27.083L77.722,35.294L88.067,40.565L82.796,50.911L80.98,62.379L69.511,60.563L58.043,62.379L56.226,50.911L50.955,40.565L61.301,35.294L69.511,27.083Z" style="fill:rgb(252,50,56);"/>
    </g>
    <g transform="matrix(0.675663,0.73721,-0.73721,0.675663,44.1146,-13.2154)">
        <path d="M69.511,27.083L77.722,35.294L88.067,40.565L82.796,50.911L80.98,62.379L69.511,60.563L58.043,62.379L56.226,50.911L50.955,40.565L61.301,35.294L69.511,27.083Z" style="fill:rgb(252,140,218);"/>
    </g>
    <g transform="matrix(0.524929,0.851146,-0.851146,0.524929,59.9011,-14.1118)">
        <path d="M69.511,27.083L77.722,35.294L88.067,40.565L82.796,50.911L80.98,62.379L69.511,60.563L58.043,62.379L56.226,50.911L50.955,40.565L61.301,35.294L69.511,27.083Z" style="fill:rgb(252,50,56);"/>
    </g>
    <g transform="matrix(0.798259,0,0,0.798259,1.24368,32.3138)">
        <path d="M69.511,27.083L77.722,35.294L88.067,40.565L82.796,50.911L80.98,62.379L69.511,60.563L58.043,62.379L56.226,50.911L50.955,40.565L61.301,35.294L69.511,27.083Z" style="fill:rgb(252,50,56);"/>
    </g>
    <g transform="matrix(0.774489,0.193351,-0.193351,0.774489,11.9051,19.9812)">
        <path d="M69.511,27.083L77.722,35.294L88.067,40.565L82.796,50.911L80.98,62.379L69.511,60.563L58.043,62.379L56.226,50.911L50.955,40.565L61.301,35.294L69.511,27.083Z" style="fill:rgb(252,140,218);"/>
    </g>
    <g transform="matrix(0.702664,0.37879,-0.37879,0.702664,25.5382,10.4379)">
        <path d="M69.511,27.083L77.722,35.294L88.067,40.565L82.796,50.911L80.98,62.379L69.511,60.563L58.043,62.379L56.226,50.911L50.955,40.565L61.301,35.294L69.511,27.083Z" style="fill:rgb(252,50,56);"/>
    </g>
    <g transform="matrix(0.619244,0.503741,-0.503741,0.619244,37.1588,5.63927)">
        <path d="M69.511,27.083L77.722,35.294L88.067,40.565L82.796,50.911L80.98,62.379L69.511,60.563L58.043,62.379L56.226,50.911L50.955,40.565L61.301,35.294L69.511,27.083Z" style="fill:rgb(252,50,56);"/>
    </g>
    <g transform="matrix(0.539354,0.588485,-0.588485,0.539354,46.6607,3.471)">
        <path d="M69.511,27.083L77.722,35.294L88.067,40.565L82.796,50.911L80.98,62.379L69.511,60.563L58.043,62.379L56.226,50.911L50.955,40.565L61.301,35.294L69.511,27.083Z" style="fill:rgb(252,50,56);"/>
    </g>
    <g transform="matrix(0.41903,0.679435,-0.679435,0.41903,59.2624,2.75543)">
        <path d="M69.511,27.083L77.722,35.294L88.067,40.565L82.796,50.911L80.98,62.379L69.511,60.563L58.043,62.379L56.226,50.911L50.955,40.565L61.301,35.294L69.511,27.083Z" style="fill:rgb(252,140,218);"/>
    </g>
    <g transform="matrix(0.555608,0,0,0.555608,18.1118,43.6165)">
        <path d="M69.511,27.083L77.722,35.294L88.067,40.565L82.796,50.911L80.98,62.379L69.511,60.563L58.043,62.379L56.226,50.911L50.955,40.565L61.301,35.294L69.511,27.083Z" style="fill:rgb(252,50,56);"/>
    </g>
    <g transform="matrix(0.539063,0.134577,-0.134577,0.539063,25.5324,35.0328)">
        <path d="M69.511,27.083L77.722,35.294L88.067,40.565L82.796,50.911L80.98,62.379L69.511,60.563L58.043,62.379L56.226,50.911L50.955,40.565L61.301,35.294L69.511,27.083Z" style="fill:rgb(252,50,56);"/>
    </g>
    <g transform="matrix(0.489071,0.263647,-0.263647,0.489071,35.0213,28.3903)">
        <path d="M69.511,27.083L77.722,35.294L88.067,40.565L82.796,50.911L80.98,62.379L69.511,60.563L58.043,62.379L56.226,50.911L50.955,40.565L61.301,35.294L69.511,27.083Z" style="fill:rgb(252,50,56);"/>
    </g>
    <g transform="matrix(0.431009,0.350615,-0.350615,0.431009,43.1095,25.0504)">
        <path d="M69.511,27.083L77.722,35.294L88.067,40.565L82.796,50.911L80.98,62.379L69.511,60.563L58.043,62.379L56.226,50.911L50.955,40.565L61.301,35.294L69.511,27.083Z" style="fill:rgb(252,50,56);"/>
    </g>
    <g transform="matrix(0.375404,0.4096,-0.4096,0.375404,49.7231,23.5412)">
        <path d="M69.511,27.083L77.722,35.294L88.067,40.565L82.796,50.911L80.98,62.379L69.511,60.563L58.043,62.379L56.226,50.911L50.955,40.565L61.301,35.294L69.511,27.083Z" style="fill:rgb(252,50,56);"/>
    </g>
    <g transform="matrix(0.291655,0.472903,-0.472903,0.291655,58.4941,23.0432)">
        <path d="M69.511,27.083L77.722,35.294L88.067,40.565L82.796,50.911L80.98,62.379L69.511,60.563L58.043,62.379L56.226,50.911L50.955,40.565L61.301,35.294L69.511,27.083Z" style="fill:rgb(252,140,218);"/>
    </g>
    <g transform="matrix(0.323367,0,0,0.323367,34.2561,54.4342)">
        <path d="M69.511,27.083L77.722,35.294L88.067,40.565L82.796,50.911L80.98,62.379L69.511,60.563L58.043,62.379L56.226,50.911L50.955,40.565L61.301,35.294L69.511,27.083Z" style="fill:rgb(252,50,56);"/>
    </g>
    <g transform="matrix(0.313738,0.0783248,-0.0783248,0.313738,38.5749,49.4384)">
        <path d="M69.511,27.083L77.722,35.294L88.067,40.565L82.796,50.911L80.98,62.379L69.511,60.563L58.043,62.379L56.226,50.911L50.955,40.565L61.301,35.294L69.511,27.083Z" style="fill:rgb(252,50,56);"/>
    </g>
    <g transform="matrix(0.284642,0.153444,-0.153444,0.284642,44.0975,45.5725)">
        <path d="M69.511,27.083L77.722,35.294L88.067,40.565L82.796,50.911L80.98,62.379L69.511,60.563L58.043,62.379L56.226,50.911L50.955,40.565L61.301,35.294L69.511,27.083Z" style="fill:rgb(252,140,218);"/>
    </g>
    <g transform="matrix(0.25085,0.204061,-0.204061,0.25085,48.805,43.6286)">
        <path d="M69.511,27.083L77.722,35.294L88.067,40.565L82.796,50.911L80.98,62.379L69.511,60.563L58.043,62.379L56.226,50.911L50.955,40.565L61.301,35.294L69.511,27.083Z" style="fill:rgb(252,50,56);"/>
    </g>
    <g transform="matrix(0.218487,0.23839,-0.23839,0.218487,52.6541,42.7503)">
        <path d="M69.511,27.083L77.722,35.294L88.067,40.565L82.796,50.911L80.98,62.379L69.511,60.563L58.043,62.379L56.226,50.911L50.955,40.565L61.301,35.294L69.511,27.083Z" style="fill:rgb(252,50,56);"/>
    </g>
    <g transform="matrix(0.169745,0.275233,-0.275233,0.169745,57.7589,42.4604)">
        <path d="M69.511,27.083L77.722,35.294L88.067,40.565L82.796,50.911L80.98,62.379L69.511,60.563L58.043,62.379L56.226,50.911L50.955,40.565L61.301,35.294L69.511,27.083Z" style="fill:rgb(252,140,218);"/>
    </g>
    <g transform="matrix(0.0736159,0.0803216,-0.0803216,0.0736159,55.3562,60.4979)">
        <path d="M69.511,27.083L77.722,35.294L88.067,40.565L82.796,50.911L80.98,62.379L69.511,60.563L58.043,62.379L56.226,50.911L50.955,40.565L61.301,35.294L69.511,27.083Z" style="fill:rgb(252,50,56);"/>
    </g>
</svg>
