<?xml version="1.0" encoding="UTF-8" standalone="no"?>
<!DOCTYPE svg PUBLIC "-//W3C//DTD SVG 1.1//EN" "http://www.w3.org/Graphics/SVG/1.1/DTD/svg11.dtd">
<svg width="100%" height="100%" viewBox="0 0 100 100" version="1.1" xmlns="http://www.w3.org/2000/svg" xmlns:xlink="http://www.w3.org/1999/xlink" xml:space="preserve" xmlns:serif="http://www.serif.com/" style="fill-rule:evenodd;clip-rule:evenodd;stroke-linecap:round;stroke-linejoin:round;stroke-miterlimit:1.5;">
    <g transform="matrix(2,0,0,2,-2.84217e-14,0)">
        <rect x="0" y="0" width="50" height="50" style="fill:rgb(160,221,255);"/>
    </g>
    <g transform="matrix(0.510275,0.0576197,-0.0993634,0.879954,41.8112,24.724)">
        <path d="M31.571,21.795C28.95,22.663 26.823,27.032 26.823,32.212C26.823,37.391 28.95,41.76 31.571,42.628C34.191,41.76 36.318,37.391 36.318,32.212C36.318,27.032 34.191,22.663 31.571,21.795Z" style="fill:rgb(43,168,74);"/>
    </g>
    <g transform="matrix(1.79926,0.731464,-0.753208,1.85275,20.0727,-0.912474)">
        <path d="M0.298,27.362C11.744,22.517 24.42,18.419 33.841,41.106" style="fill:none;stroke:rgb(36,130,50);stroke-width:7.61px;"/>
    </g>
    <g transform="matrix(1.79926,0.731464,-0.753208,1.85275,20.0727,-0.912474)">
        <path d="M33.907,10.201C34.683,20.294 24.42,18.419 33.841,41.106" style="fill:none;stroke:rgb(43,168,74);stroke-width:7.61px;"/>
    </g>
</svg>
