<?xml version="1.0" encoding="UTF-8" standalone="no"?>
<!DOCTYPE svg PUBLIC "-//W3C//DTD SVG 1.1//EN" "http://www.w3.org/Graphics/SVG/1.1/DTD/svg11.dtd">
<svg width="100%" height="100%" viewBox="0 0 100 100" version="1.1" xmlns="http://www.w3.org/2000/svg" xmlns:xlink="http://www.w3.org/1999/xlink" xml:space="preserve" xmlns:serif="http://www.serif.com/" style="fill-rule:evenodd;clip-rule:evenodd;stroke-linecap:round;stroke-linejoin:round;stroke-miterlimit:1.5;">
    <g transform="matrix(2,0,0,2,-2.84217e-14,0)">
        <rect x="0" y="0" width="50" height="50" style="fill:rgb(160,221,255);"/>
    </g>
    <g transform="matrix(1.25894,0,0,1.25894,-2.15187,7.09961)">
        <circle cx="37.26" cy="49.84" r="4.167" style="fill:rgb(255,212,222);"/>
    </g>
    <g transform="matrix(2,0,0,2,-2.84217e-14,0)">
        <path d="M25,0C25.069,8.814 21.329,13.475 23.878,21.394" style="fill:none;stroke:rgb(36,130,50);stroke-width:7.5px;"/>
    </g>
    <g transform="matrix(1.25894,0,0,1.25894,-4.68656,-15.295)">
        <circle cx="37.26" cy="49.84" r="4.167" style="fill:rgb(255,212,222);"/>
    </g>
    <g transform="matrix(1.25894,0,0,1.25894,3.0937,-19.1283)">
        <circle cx="37.26" cy="49.84" r="4.167" style="fill:rgb(255,228,222);"/>
    </g>
    <g transform="matrix(1.25894,0,0,1.25894,10.8715,-19.1283)">
        <circle cx="37.26" cy="49.84" r="4.167" style="fill:rgb(255,212,222);"/>
    </g>
    <g transform="matrix(1.25894,0,0,1.25894,-4.68656,-8.63711)">
        <circle cx="37.26" cy="49.84" r="4.167" style="fill:rgb(255,212,222);"/>
    </g>
    <g transform="matrix(1.25894,0,0,1.25894,-9.93213,-10.0494)">
        <circle cx="37.26" cy="49.84" r="4.167" style="fill:rgb(255,228,222);"/>
    </g>
    <g transform="matrix(1.25894,0,0,1.25894,3.0937,-13.8827)">
        <circle cx="37.26" cy="49.84" r="4.167" style="fill:rgb(255,228,222);"/>
    </g>
    <g transform="matrix(1.25894,0,0,1.25894,8.33927,5.88908)">
        <circle cx="37.26" cy="49.84" r="4.167" style="fill:rgb(255,228,222);"/>
    </g>
    <g transform="matrix(1.25894,0,0,1.25894,-2.15187,1.85403)">
        <circle cx="37.26" cy="49.84" r="4.167" style="fill:rgb(255,212,222);"/>
    </g>
    <g transform="matrix(1.42841,0,0,1.42841,-15.5405,-12.5441)">
        <circle cx="37.26" cy="49.84" r="4.167" style="fill:rgb(255,212,222);"/>
    </g>
    <g transform="matrix(1.25894,0,0,1.25894,13.5848,-8.63711)">
        <circle cx="37.26" cy="49.84" r="4.167" style="fill:rgb(255,212,222);"/>
    </g>
    <g transform="matrix(1.25894,0,0,1.25894,5.80459,-10.0494)">
        <circle cx="37.26" cy="49.84" r="4.167" style="fill:rgb(255,212,222);"/>
    </g>
    <g transform="matrix(1.73561,0,0,1.73561,-4.90282,-38.3248)">
        <circle cx="37.26" cy="49.84" r="4.167" style="fill:rgb(255,212,222);"/>
    </g>
    <g transform="matrix(1.25894,0,0,1.25894,5.62597,-3.39154)">
        <circle cx="37.26" cy="49.84" r="4.167" style="fill:rgb(255,228,222);"/>
    </g>
    <g transform="matrix(1.25894,0,0,1.25894,0.3804,-4.80381)">
        <circle cx="37.26" cy="49.84" r="4.167" style="fill:rgb(255,228,222);"/>
    </g>
    <g transform="matrix(1.25894,0,0,1.25894,13.5848,0.441763)">
        <circle cx="37.26" cy="49.84" r="4.167" style="fill:rgb(255,212,222);"/>
    </g>
    <g transform="matrix(1.25894,0,0,1.25894,16.1171,-4.80381)">
        <circle cx="37.26" cy="49.84" r="4.167" style="fill:rgb(255,228,222);"/>
    </g>
    <g transform="matrix(1.25894,0,0,1.25894,16.1171,-10.0494)">
        <circle cx="37.26" cy="49.84" r="4.167" style="fill:rgb(255,228,222);"/>
    </g>
    <g transform="matrix(1.25894,0,0,1.25894,3.0937,5.68733)">
        <circle cx="37.26" cy="49.84" r="4.167" style="fill:rgb(255,212,222);"/>
    </g>
    <g transform="matrix(1.25894,0,0,1.25894,-7.39744,5.68733)">
        <circle cx="37.26" cy="49.84" r="4.167" style="fill:rgb(255,228,222);"/>
    </g>
    <g transform="matrix(1,0,0,1,3.97823,-2.51827)">
        <path d="M43.987,54.294C44.159,53.4 45.012,52.696 46.022,52.696C47.032,52.696 47.885,53.4 48.056,54.294C48.81,53.783 49.912,53.887 50.626,54.601C51.34,55.314 51.445,56.415 50.934,57.168C51.828,57.339 52.533,58.191 52.533,59.2C52.533,60.209 51.828,61.062 50.934,61.233C51.445,61.986 51.34,63.087 50.626,63.8C49.912,64.513 48.81,64.618 48.056,64.107C47.885,65.001 47.032,65.705 46.022,65.705C45.012,65.705 44.159,65.001 43.987,64.107C43.233,64.618 42.131,64.513 41.417,63.8C40.703,63.087 40.598,61.986 41.11,61.233C40.215,61.062 39.51,60.209 39.51,59.2C39.51,58.191 40.215,57.339 41.11,57.168C40.598,56.415 40.703,55.314 41.417,54.601C42.131,53.887 43.233,53.783 43.987,54.294Z" style="fill:rgb(217,134,157);"/>
    </g>
</svg>
