<?xml version="1.0" encoding="UTF-8" standalone="no"?>
<!DOCTYPE svg PUBLIC "-//W3C//DTD SVG 1.1//EN" "http://www.w3.org/Graphics/SVG/1.1/DTD/svg11.dtd">
<svg width="100%" height="100%" viewBox="0 0 100 100" version="1.1" xmlns="http://www.w3.org/2000/svg" xmlns:xlink="http://www.w3.org/1999/xlink" xml:space="preserve" xmlns:serif="http://www.serif.com/" style="fill-rule:evenodd;clip-rule:evenodd;stroke-linejoin:round;stroke-miterlimit:1.5;">
    <g transform="matrix(2,0,0,2,-2.84217e-14,0)">
        <rect x="0" y="0" width="50" height="50" style="fill:rgb(160,221,255);"/>
    </g>
    <g transform="matrix(-1.79926,0.731464,0.753208,1.85275,79.9273,-0.912474)">
        <path d="M47.994,8.532C39.339,12.055 24.42,18.419 33.841,41.106" style="fill:none;stroke:rgb(43,168,74);stroke-width:7.61px;"/>
    </g>
    <g transform="matrix(-2,0,0,1.45513,100,27.2436)">
        <path d="M12.26,8.04C16.987,-18.336 33.156,-9.732 31.646,5.576C30.439,17.815 24.981,31.403 25,50" style="fill:none;stroke:rgb(43,168,74);stroke-width:8.58px;"/>
    </g>
    <g transform="matrix(1,0,0,1,5.96955,-2.88462)">
        <path d="M69.511,27.083L77.722,35.294L88.067,40.565L82.796,50.911L80.98,62.379L69.511,60.563L58.043,62.379L56.226,50.911L50.955,40.565L61.301,35.294L69.511,27.083Z" style="fill:rgb(252,160,56);"/>
    </g>
    <g transform="matrix(0.970222,0.242216,-0.242216,0.970222,19.3254,-18.3339)">
        <path d="M69.511,27.083L77.722,35.294L88.067,40.565L82.796,50.911L80.98,62.379L69.511,60.563L58.043,62.379L56.226,50.911L50.955,40.565L61.301,35.294L69.511,27.083Z" style="fill:rgb(252,204,56);"/>
    </g>
    <g transform="matrix(0.880245,0.47452,-0.47452,0.880245,36.4039,-30.2891)">
        <path d="M69.511,27.083L77.722,35.294L88.067,40.565L82.796,50.911L80.98,62.379L69.511,60.563L58.043,62.379L56.226,50.911L50.955,40.565L61.301,35.294L69.511,27.083Z" style="fill:rgb(252,160,95);"/>
    </g>
    <g transform="matrix(0.775743,0.631049,-0.631049,0.775743,50.9614,-36.3004)">
        <path d="M69.511,27.083L77.722,35.294L88.067,40.565L82.796,50.911L80.98,62.379L69.511,60.563L58.043,62.379L56.226,50.911L50.955,40.565L61.301,35.294L69.511,27.083Z" style="fill:rgb(252,160,56);"/>
    </g>
    <g transform="matrix(0.675663,0.73721,-0.73721,0.675663,62.8646,-39.0167)">
        <path d="M69.511,27.083L77.722,35.294L88.067,40.565L82.796,50.911L80.98,62.379L69.511,60.563L58.043,62.379L56.226,50.911L50.955,40.565L61.301,35.294L69.511,27.083Z" style="fill:rgb(252,209,56);"/>
    </g>
    <g transform="matrix(0.524929,0.851146,-0.851146,0.524929,78.6511,-39.9131)">
        <path d="M69.511,27.083L77.722,35.294L88.067,40.565L82.796,50.911L80.98,62.379L69.511,60.563L58.043,62.379L56.226,50.911L50.955,40.565L61.301,35.294L69.511,27.083Z" style="fill:rgb(252,160,100);"/>
    </g>
    <g transform="matrix(0.798259,0,0,0.798259,19.9937,6.51248)">
        <path d="M69.511,27.083L77.722,35.294L88.067,40.565L82.796,50.911L80.98,62.379L69.511,60.563L58.043,62.379L56.226,50.911L50.955,40.565L61.301,35.294L69.511,27.083Z" style="fill:rgb(252,160,56);"/>
    </g>
    <g transform="matrix(0.774489,0.193351,-0.193351,0.774489,30.6551,-5.82004)">
        <path d="M69.511,27.083L77.722,35.294L88.067,40.565L82.796,50.911L80.98,62.379L69.511,60.563L58.043,62.379L56.226,50.911L50.955,40.565L61.301,35.294L69.511,27.083Z" style="fill:rgb(252,204,56);"/>
    </g>
    <g transform="matrix(0.702664,0.37879,-0.37879,0.702664,44.2882,-15.3634)">
        <path d="M69.511,27.083L77.722,35.294L88.067,40.565L82.796,50.911L80.98,62.379L69.511,60.563L58.043,62.379L56.226,50.911L50.955,40.565L61.301,35.294L69.511,27.083Z" style="fill:rgb(252,160,95);"/>
    </g>
    <g transform="matrix(0.619244,0.503741,-0.503741,0.619244,55.9088,-20.162)">
        <path d="M69.511,27.083L77.722,35.294L88.067,40.565L82.796,50.911L80.98,62.379L69.511,60.563L58.043,62.379L56.226,50.911L50.955,40.565L61.301,35.294L69.511,27.083Z" style="fill:rgb(252,160,56);"/>
    </g>
    <g transform="matrix(0.539354,0.588485,-0.588485,0.539354,65.4107,-22.3303)">
        <path d="M69.511,27.083L77.722,35.294L88.067,40.565L82.796,50.911L80.98,62.379L69.511,60.563L58.043,62.379L56.226,50.911L50.955,40.565L61.301,35.294L69.511,27.083Z" style="fill:rgb(252,209,56);"/>
    </g>
    <g transform="matrix(0.41903,0.679435,-0.679435,0.41903,78.0124,-23.0458)">
        <path d="M69.511,27.083L77.722,35.294L88.067,40.565L82.796,50.911L80.98,62.379L69.511,60.563L58.043,62.379L56.226,50.911L50.955,40.565L61.301,35.294L69.511,27.083Z" style="fill:rgb(252,160,100);"/>
    </g>
    <g transform="matrix(0.555608,0,0,0.555608,36.8618,17.8152)">
        <path d="M69.511,27.083L77.722,35.294L88.067,40.565L82.796,50.911L80.98,62.379L69.511,60.563L58.043,62.379L56.226,50.911L50.955,40.565L61.301,35.294L69.511,27.083Z" style="fill:rgb(252,160,56);"/>
    </g>
    <g transform="matrix(0.539063,0.134577,-0.134577,0.539063,44.2824,9.23147)">
        <path d="M69.511,27.083L77.722,35.294L88.067,40.565L82.796,50.911L80.98,62.379L69.511,60.563L58.043,62.379L56.226,50.911L50.955,40.565L61.301,35.294L69.511,27.083Z" style="fill:rgb(252,204,56);"/>
    </g>
    <g transform="matrix(0.489071,0.263647,-0.263647,0.489071,53.7713,2.58905)">
        <path d="M69.511,27.083L77.722,35.294L88.067,40.565L82.796,50.911L80.98,62.379L69.511,60.563L58.043,62.379L56.226,50.911L50.955,40.565L61.301,35.294L69.511,27.083Z" style="fill:rgb(252,160,95);"/>
    </g>
    <g transform="matrix(0.431009,0.350615,-0.350615,0.431009,61.8595,-0.750886)">
        <path d="M69.511,27.083L77.722,35.294L88.067,40.565L82.796,50.911L80.98,62.379L69.511,60.563L58.043,62.379L56.226,50.911L50.955,40.565L61.301,35.294L69.511,27.083Z" style="fill:rgb(252,160,56);"/>
    </g>
    <g transform="matrix(0.375404,0.4096,-0.4096,0.375404,68.4731,-2.26005)">
        <path d="M69.511,27.083L77.722,35.294L88.067,40.565L82.796,50.911L80.98,62.379L69.511,60.563L58.043,62.379L56.226,50.911L50.955,40.565L61.301,35.294L69.511,27.083Z" style="fill:rgb(252,209,56);"/>
    </g>
    <g transform="matrix(0.291655,0.472903,-0.472903,0.291655,77.2441,-2.7581)">
        <path d="M69.511,27.083L77.722,35.294L88.067,40.565L82.796,50.911L80.98,62.379L69.511,60.563L58.043,62.379L56.226,50.911L50.955,40.565L61.301,35.294L69.511,27.083Z" style="fill:rgb(252,160,100);"/>
    </g>
    <g transform="matrix(0.323367,0,0,0.323367,53.0061,28.633)">
        <path d="M69.511,27.083L77.722,35.294L88.067,40.565L82.796,50.911L80.98,62.379L69.511,60.563L58.043,62.379L56.226,50.911L50.955,40.565L61.301,35.294L69.511,27.083Z" style="fill:rgb(252,160,56);"/>
    </g>
    <g transform="matrix(0.313738,0.0783248,-0.0783248,0.313738,57.3249,23.6372)">
        <path d="M69.511,27.083L77.722,35.294L88.067,40.565L82.796,50.911L80.98,62.379L69.511,60.563L58.043,62.379L56.226,50.911L50.955,40.565L61.301,35.294L69.511,27.083Z" style="fill:rgb(252,204,56);"/>
    </g>
    <g transform="matrix(0.284642,0.153444,-0.153444,0.284642,62.8475,19.7712)">
        <path d="M69.511,27.083L77.722,35.294L88.067,40.565L82.796,50.911L80.98,62.379L69.511,60.563L58.043,62.379L56.226,50.911L50.955,40.565L61.301,35.294L69.511,27.083Z" style="fill:rgb(252,160,95);"/>
    </g>
    <g transform="matrix(0.25085,0.204061,-0.204061,0.25085,67.555,17.8274)">
        <path d="M69.511,27.083L77.722,35.294L88.067,40.565L82.796,50.911L80.98,62.379L69.511,60.563L58.043,62.379L56.226,50.911L50.955,40.565L61.301,35.294L69.511,27.083Z" style="fill:rgb(252,160,56);"/>
    </g>
    <g transform="matrix(0.218487,0.23839,-0.23839,0.218487,71.4041,16.949)">
        <path d="M69.511,27.083L77.722,35.294L88.067,40.565L82.796,50.911L80.98,62.379L69.511,60.563L58.043,62.379L56.226,50.911L50.955,40.565L61.301,35.294L69.511,27.083Z" style="fill:rgb(252,209,56);"/>
    </g>
    <g transform="matrix(0.169745,0.275233,-0.275233,0.169745,76.5089,16.6592)">
        <path d="M69.511,27.083L77.722,35.294L88.067,40.565L82.796,50.911L80.98,62.379L69.511,60.563L58.043,62.379L56.226,50.911L50.955,40.565L61.301,35.294L69.511,27.083Z" style="fill:rgb(252,160,100);"/>
    </g>
    <g transform="matrix(0.0736159,0.0803216,-0.0803216,0.0736159,74.1062,34.6966)">
        <path d="M69.511,27.083L77.722,35.294L88.067,40.565L82.796,50.911L80.98,62.379L69.511,60.563L58.043,62.379L56.226,50.911L50.955,40.565L61.301,35.294L69.511,27.083Z" style="fill:rgb(252,209,56);"/>
    </g>
</svg>
