<?xml version="1.0" encoding="UTF-8" standalone="no"?>
<!DOCTYPE svg PUBLIC "-//W3C//DTD SVG 1.1//EN" "http://www.w3.org/Graphics/SVG/1.1/DTD/svg11.dtd">
<svg width="100%" height="100%" viewBox="0 0 100 100" version="1.1" xmlns="http://www.w3.org/2000/svg" xmlns:xlink="http://www.w3.org/1999/xlink" xml:space="preserve" xmlns:serif="http://www.serif.com/" style="fill-rule:evenodd;clip-rule:evenodd;stroke-linecap:round;stroke-linejoin:round;stroke-miterlimit:1.5;">
    <g transform="matrix(2,0,0,2,-2.84217e-14,0)">
        <rect x="0" y="0" width="50" height="50" style="fill:rgb(160,221,255);"/>
    </g>
    <g transform="matrix(1.79926,0.731464,-0.753208,1.85275,20.0727,-0.912474)">
        <path d="M9.859,11.265C12.028,13.947 15.887,20.732 0.298,27.362" style="fill:none;stroke:rgb(43,168,74);stroke-width:2.54px;"/>
    </g>
    <g transform="matrix(2,0,0,2,-2.84217e-14,0)">
        <path d="M25,0C26.111,12.099 30.384,24.933 50,25" style="fill:none;stroke:rgb(36,130,50);stroke-width:7.5px;stroke-linecap:butt;"/>
    </g>
    <g transform="matrix(1.79926,0.731464,-0.753208,1.85275,20.0727,-0.912474)">
        <path d="M14.451,-5.213C22.914,15.484 15.887,20.732 0.298,27.362" style="fill:none;stroke:rgb(43,168,74);stroke-width:7.61px;stroke-linecap:butt;"/>
    </g>
    <g transform="matrix(2,0,0,2,-2.84217e-14,0)">
        <path d="M25,0C24.994,6.262 29.967,19.357 29.97,29.481C29.973,38.271 24.927,38.594 25,50" style="fill:none;stroke:rgb(36,130,50);stroke-width:7.5px;stroke-linecap:butt;"/>
    </g>
    <g transform="matrix(1.79926,0.731464,-0.753208,1.85275,20.0727,-0.912474)">
        <path d="M23.119,20.388C19.058,24.146 15.887,20.732 0.298,27.362" style="fill:none;stroke:rgb(43,168,74);stroke-width:2.54px;"/>
    </g>
</svg>
