<?xml version="1.0" encoding="UTF-8" standalone="no"?>
<!DOCTYPE svg PUBLIC "-//W3C//DTD SVG 1.1//EN" "http://www.w3.org/Graphics/SVG/1.1/DTD/svg11.dtd">
<svg width="100%" height="100%" viewBox="0 0 100 100" version="1.1" xmlns="http://www.w3.org/2000/svg" xmlns:xlink="http://www.w3.org/1999/xlink" xml:space="preserve" xmlns:serif="http://www.serif.com/" style="fill-rule:evenodd;clip-rule:evenodd;stroke-linejoin:round;stroke-miterlimit:1.5;">
    <g transform="matrix(2,0,0,2,-2.84217e-14,0)">
        <rect x="0" y="0" width="50" height="50" style="fill:rgb(160,221,255);"/>
    </g>
    <g transform="matrix(2,0,0,2,-2.84217e-14,0)">
        <path d="M31.41,11.859C14.343,16.186 24.92,37.179 25,50" style="fill:none;stroke:rgb(43,168,74);stroke-width:7.5px;"/>
    </g>
    <g transform="matrix(-0.50662,-1.09567,1.09567,-0.50662,73.004,106.066)">
        <path d="M78.542,31.05C79.739,28.699 80.369,26.032 80.369,23.317C80.369,14.782 74.259,7.853 66.733,7.853C59.207,7.853 53.097,14.782 53.097,23.317C53.097,26.032 53.727,28.699 54.924,31.05L78.542,31.05Z" style="fill:rgb(126,94,200);"/>
    </g>
    <g transform="matrix(1.79926,0.731464,-0.753208,1.85275,20.0727,-0.912474)">
        <path d="M47.994,8.532C37.373,12.523 33.84,20.52 26.445,23.44C18.496,26.578 12.059,22.69 0.298,27.362" style="fill:none;stroke:rgb(36,130,50);stroke-width:7.61px;"/>
    </g>
    <g transform="matrix(0.154609,0.311099,-0.809477,0.402291,63.1302,-23.1521)">
        <path d="M90.304,15.144C90.304,10.409 86.322,6.571 81.41,6.571C76.498,6.571 72.516,10.409 72.516,15.144L90.304,15.144Z" style="fill:rgb(126,94,200);"/>
    </g>
    <g transform="matrix(0.154609,0.311099,-0.809477,0.402291,65.6351,-19.558)">
        <path d="M90.304,15.144C90.304,10.409 86.322,6.571 81.41,6.571C76.498,6.571 72.516,10.409 72.516,15.144L90.304,15.144Z" style="fill:rgb(126,94,200);"/>
    </g>
    <g transform="matrix(0.154609,0.311099,-0.809477,0.402291,67.356,-15.964)">
        <path d="M90.304,15.144C90.304,10.409 86.322,6.571 81.41,6.571C76.498,6.571 72.516,10.409 72.516,15.144L90.304,15.144Z" style="fill:rgb(126,94,200);"/>
    </g>
    <g transform="matrix(0.154609,0.311099,-0.809477,0.402291,68.0936,-12.3699)">
        <path d="M90.304,15.144C90.304,10.409 86.322,6.571 81.41,6.571C76.498,6.571 72.516,10.409 72.516,15.144L90.304,15.144Z" style="fill:rgb(126,94,200);"/>
    </g>
    <g transform="matrix(0.154609,0.311099,-0.809477,0.402291,69.8609,-8.77581)">
        <path d="M90.304,15.144C90.304,10.409 86.322,6.571 81.41,6.571C76.498,6.571 72.516,10.409 72.516,15.144L90.304,15.144Z" style="fill:rgb(126,94,200);"/>
    </g>
    <g transform="matrix(0.154609,0.311099,-0.809477,0.402291,71.5818,-5.18173)">
        <path d="M90.304,15.144C90.304,10.409 86.322,6.571 81.41,6.571C76.498,6.571 72.516,10.409 72.516,15.144L90.304,15.144Z" style="fill:rgb(126,94,200);"/>
    </g>
    <g transform="matrix(0.154609,0.311099,-0.809477,0.402291,74.0868,-1.58765)">
        <path d="M90.304,15.144C90.304,10.409 86.322,6.571 81.41,6.571C76.498,6.571 72.516,10.409 72.516,15.144L90.304,15.144Z" style="fill:rgb(126,94,200);"/>
    </g>
    <g transform="matrix(1,0,0,-1,10.7372,135.317)">
        <path d="M33.894,42.431C32.292,45.353 25.08,63.942 16.907,62.34" style="fill:none;stroke:rgb(43,168,74);stroke-width:5px;stroke-linecap:round;"/>
    </g>
</svg>
