<?xml version="1.0" encoding="UTF-8" standalone="no"?>
<!DOCTYPE svg PUBLIC "-//W3C//DTD SVG 1.1//EN" "http://www.w3.org/Graphics/SVG/1.1/DTD/svg11.dtd">
<svg width="100%" height="100%" viewBox="0 0 100 100" version="1.1" xmlns="http://www.w3.org/2000/svg" xmlns:xlink="http://www.w3.org/1999/xlink" xml:space="preserve" xmlns:serif="http://www.serif.com/" style="fill-rule:evenodd;clip-rule:evenodd;stroke-linecap:round;stroke-linejoin:round;stroke-miterlimit:1.5;">
    <g transform="matrix(2,0,0,2,-2.84217e-14,0)">
        <rect x="0" y="0" width="50" height="50" style="fill:rgb(160,221,255);"/>
    </g>
    <g transform="matrix(1.79926,0.731464,-0.753208,1.85275,20.0727,-0.912474)">
        <path d="M47.994,8.532C33.225,14.379 19.238,6.492 14.451,-5.213" style="fill:none;stroke:rgb(43,168,74);stroke-width:7.61px;"/>
    </g>
    <g transform="matrix(-1.79926,0.731464,0.753208,1.85275,79.9273,-0.912501)">
        <path d="M47.994,8.532C33.225,14.379 19.238,6.492 14.451,-5.213" style="fill:none;stroke:rgb(43,168,74);stroke-width:7.61px;"/>
    </g>
    <path d="M86.538,55.609C86.538,55.609 81.329,58.037 80.849,60.922C80.368,63.807 79.327,87.5 80.769,88.942C82.212,90.385 83.333,94.071 85.096,92.949C86.859,91.827 86.538,55.609 86.538,55.609" style="fill:rgb(43,168,74);"/>
    <g transform="matrix(-0.999992,0,0,1.2,159.893,-11.9627)">
        <ellipse cx="76.522" cy="62.74" rx="1.522" ry="2.003" style="fill:rgb(36,130,50);"/>
    </g>
    <g transform="matrix(-0.999992,0,0,1.2,159.893,-4.81787)">
        <ellipse cx="76.522" cy="62.74" rx="1.522" ry="2.003" style="fill:rgb(36,130,50);"/>
    </g>
    <g transform="matrix(-0.999992,0,0,1.2,159.893,1.81674)">
        <ellipse cx="76.522" cy="62.74" rx="1.522" ry="2.003" style="fill:rgb(36,130,50);"/>
    </g>
    <g transform="matrix(-0.999992,0,0,1.2,159.893,10.1527)">
        <ellipse cx="76.522" cy="62.74" rx="1.522" ry="2.003" style="fill:rgb(36,130,50);"/>
    </g>
    <g transform="matrix(1,0,0,1,-12.0192,-5.60898)">
        <path d="M86.538,55.609C86.538,55.609 81.329,58.037 80.849,60.922C80.368,63.807 79.327,87.5 80.769,88.942C82.212,90.385 83.333,94.071 85.096,92.949C86.859,91.827 86.538,55.609 86.538,55.609" style="fill:rgb(43,168,74);"/>
    </g>
    <g transform="matrix(-0.999992,0,0,1.2,147.874,-17.5716)">
        <ellipse cx="76.522" cy="62.74" rx="1.522" ry="2.003" style="fill:rgb(36,130,50);"/>
    </g>
    <g transform="matrix(-0.999992,0,0,1.2,147.874,-10.4268)">
        <ellipse cx="76.522" cy="62.74" rx="1.522" ry="2.003" style="fill:rgb(36,130,50);"/>
    </g>
    <g transform="matrix(-0.999992,0,0,1.2,147.874,-3.79223)">
        <ellipse cx="76.522" cy="62.74" rx="1.522" ry="2.003" style="fill:rgb(36,130,50);"/>
    </g>
    <g transform="matrix(-0.999992,0,0,1.2,147.874,4.54374)">
        <ellipse cx="76.522" cy="62.74" rx="1.522" ry="2.003" style="fill:rgb(36,130,50);"/>
    </g>
    <g transform="matrix(1,0,0,1,-22.7564,-12.1795)">
        <path d="M86.538,55.609C86.538,55.609 81.329,58.037 80.849,60.922C80.368,63.807 79.327,87.5 80.769,88.942C82.212,90.385 83.333,94.071 85.096,92.949C86.859,91.827 86.538,55.609 86.538,55.609" style="fill:rgb(43,168,74);"/>
    </g>
    <g transform="matrix(-0.999992,0,0,1.2,137.136,-24.1422)">
        <ellipse cx="76.522" cy="62.74" rx="1.522" ry="2.003" style="fill:rgb(36,130,50);"/>
    </g>
    <g transform="matrix(-0.999992,0,0,1.2,137.136,-16.9974)">
        <ellipse cx="76.522" cy="62.74" rx="1.522" ry="2.003" style="fill:rgb(36,130,50);"/>
    </g>
    <g transform="matrix(-0.999992,0,0,1.2,137.136,-10.3627)">
        <ellipse cx="76.522" cy="62.74" rx="1.522" ry="2.003" style="fill:rgb(36,130,50);"/>
    </g>
    <g transform="matrix(-0.999992,0,0,1.2,137.136,-2.02678)">
        <ellipse cx="76.522" cy="62.74" rx="1.522" ry="2.003" style="fill:rgb(36,130,50);"/>
    </g>
</svg>
