<?xml version="1.0" encoding="UTF-8" standalone="no"?>
<!DOCTYPE svg PUBLIC "-//W3C//DTD SVG 1.1//EN" "http://www.w3.org/Graphics/SVG/1.1/DTD/svg11.dtd">
<svg width="100%" height="100%" viewBox="0 0 100 100" version="1.1" xmlns="http://www.w3.org/2000/svg" xmlns:xlink="http://www.w3.org/1999/xlink" xml:space="preserve" xmlns:serif="http://www.serif.com/" style="fill-rule:evenodd;clip-rule:evenodd;stroke-linejoin:round;stroke-miterlimit:1.5;">
    <g transform="matrix(2,0,0,2,-2.84217e-14,0)">
        <rect x="0" y="0" width="50" height="50" style="fill:rgb(160,221,255);"/>
    </g>
    <g transform="matrix(2,0,0,2,-2.84217e-14,0)">
        <path d="M0,25C16.896,24.92 24.855,35.43 25,50" style="fill:none;stroke:rgb(36,130,50);stroke-width:7.5px;"/>
    </g>
    <g transform="matrix(1.79926,0.731464,-0.753208,1.85275,20.0727,-0.912474)">
        <path d="M34.862,13.716C31.908,6.905 19.732,7.21 14.451,-5.213" style="fill:none;stroke:rgb(43,168,74);stroke-width:7.61px;stroke-linecap:round;"/>
    </g>
    <g transform="matrix(-0.754306,0.782175,-0.786047,-0.758041,138.897,85.3027)">
        <path d="M32.647,47.361C30.108,45.855 27.205,45.059 24.245,45.059C15.224,45.059 7.899,52.312 7.899,61.245C7.899,70.178 15.224,77.431 24.245,77.431C33.267,77.431 40.592,70.178 40.592,61.245C40.592,58.315 39.788,55.44 38.267,52.926L24.245,61.245L32.647,47.361Z" style="fill:rgb(122,0,75);"/>
    </g>
    <g transform="matrix(-0.754306,0.782175,-0.786047,-0.758041,138.897,85.3027)">
        <path d="M30.55,46.312C28.553,45.485 26.41,45.059 24.245,45.059C15.224,45.059 7.899,52.312 7.899,61.245C7.899,70.178 15.224,77.431 24.245,77.431C33.267,77.431 40.592,70.178 40.592,61.245C40.592,59.102 40.162,56.98 39.327,55.002L24.245,61.245L30.55,46.312Z" style="fill:rgb(199,0,159);"/>
    </g>
    <g transform="matrix(-0.754306,0.782175,-0.786047,-0.758041,138.897,85.3027)">
        <path d="M26.095,45.163C25.481,45.094 24.864,45.059 24.245,45.059C15.224,45.059 7.899,52.312 7.899,61.245C7.899,70.178 15.224,77.431 24.245,77.431C33.267,77.431 40.592,70.178 40.592,61.245C40.592,60.633 40.557,60.022 40.487,59.414L24.245,61.245L26.095,45.163Z" style="fill:rgb(122,0,75);"/>
    </g>
    <g transform="matrix(-0.754306,0.782175,-0.786047,-0.758041,138.897,85.3027)">
        <path d="M19.557,45.739C12.638,47.79 7.899,54.094 7.899,61.245C7.899,70.178 15.224,77.431 24.245,77.431C31.467,77.431 37.833,72.738 39.905,65.888L24.245,61.245L19.557,45.739Z" style="fill:rgb(199,0,159);"/>
    </g>
    <g transform="matrix(-0.754306,0.782175,-0.786047,-0.758041,138.897,85.3027)">
        <path d="M14.141,48.522C10.2,51.591 7.899,56.281 7.899,61.245C7.899,70.178 15.224,77.431 24.245,77.431C29.259,77.431 33.995,75.153 37.095,71.25L24.245,61.245L14.141,48.522Z" style="fill:rgb(122,0,75);"/>
    </g>
    <g transform="matrix(-0.754306,0.782175,-0.786047,-0.758041,138.897,85.3027)">
        <path d="M9.062,55.251C8.294,57.158 7.899,59.192 7.899,61.245C7.899,70.178 15.224,77.431 24.245,77.431C26.319,77.431 28.373,77.04 30.299,76.28L24.245,61.245L9.062,55.251Z" style="fill:rgb(199,0,159);"/>
    </g>
    <g transform="matrix(-0.754306,0.782175,-0.786047,-0.758041,138.897,85.3027)">
        <path d="M9.062,67.24C10.723,71.366 14.024,74.635 18.192,76.28L24.245,61.245L9.062,67.24Z" style="fill:rgb(122,0,75);"/>
    </g>
</svg>
